<?xml version="1.0" standalone="no"?>
<!DOCTYPE svg PUBLIC "-//W3C//DTD SVG 20010904//EN"
 "http://www.w3.org/TR/2001/REC-SVG-20010904/DTD/svg10.dtd">
<svg version="1.0" xmlns="http://www.w3.org/2000/svg"
 width="900.000000pt" height="241.000000pt" viewBox="0 0 900.000000 241.000000"
 preserveAspectRatio="xMidYMid meet">
<metadata>
Created by potrace 1.10, written by Peter Selinger 2001-2011
</metadata>
<g transform="translate(0.000000,241.000000) scale(0.100000,-0.100000)"
fill="#000000" stroke="none">
<path d="M1443 1794 c-28 -7 -68 -23 -89 -35 -22 -12 -58 -33 -82 -47 -56 -32
-151 -41 -175 -17 -22 22 -21 32 4 46 14 7 43 9 80 5 48 -6 59 -4 59 8 0 18
-51 36 -87 30 -80 -12 -92 -16 -102 -28 -24 -29 -21 -58 9 -86 66 -62 181 -61
314 4 111 54 164 69 237 68 65 0 99 -14 99 -41 0 -42 -128 -58 -169 -20 -21
19 -23 20 -46 5 -30 -19 -31 -28 -7 -48 24 -22 53 -29 116 -30 107 -2 186 36
186 91 0 88 -180 138 -347 95z"/>
<path d="M2735 1731 c-157 -74 -259 -291 -259 -551 0 -96 3 -123 21 -161 29
-64 77 -98 158 -112 107 -18 215 13 303 88 40 35 41 35 47 13 10 -31 34 -57
70 -76 41 -21 140 -20 188 2 85 41 149 145 172 278 5 33 10 39 43 48 20 5 40
10 43 10 7 0 3 -24 -36 -207 l-28 -131 -61 -23 c-68 -24 -125 -74 -127 -111
-5 -79 7 -110 54 -138 54 -33 157 -20 208 26 14 13 18 13 29 -1 36 -44 128
-59 193 -31 65 27 112 106 133 223 3 15 10 48 15 73 6 25 30 141 55 258 24
118 46 217 49 221 2 5 26 7 52 6 27 -1 51 3 55 9 18 26 7 35 -46 38 l-54 3 18
69 c17 68 44 106 75 106 22 0 47 -31 42 -51 -4 -15 1 -19 24 -19 29 0 31 2 32
43 1 67 -62 127 -133 127 -43 -1 -105 -22 -130 -45 -18 -17 -21 -16 -50 8 -83
70 -215 33 -271 -75 -10 -20 -31 -98 -46 -174 -28 -135 -28 -137 -60 -151 -35
-14 -74 -17 -71 -5 6 20 -15 98 -32 122 -28 39 -70 54 -139 47 -70 -6 -110
-25 -161 -78 -53 -55 -88 -129 -109 -232 -13 -67 -22 -90 -41 -105 -47 -36
-92 -54 -150 -57 -48 -3 -64 0 -92 18 -48 33 -61 81 -55 197 13 230 114 449
218 473 33 8 66 -15 74 -51 6 -29 -16 -95 -35 -107 -21 -13 12 -35 50 -35 58
0 83 37 78 113 -3 45 -10 63 -32 86 -56 59 -183 69 -281 22z m1119 -77 c19 -7
20 -40 5 -117 l-12 -57 -54 0 -55 0 7 28 c11 41 13 55 14 75 1 20 53 77 69 77
6 0 17 -3 26 -6z m-27 -231 c2 -6 -3 -47 -12 -90 -9 -43 -19 -87 -21 -99 -17
-88 -52 -245 -55 -248 -2 -3 -24 -7 -49 -11 -24 -4 -48 -9 -53 -12 -4 -2 -6 6
-3 19 3 12 17 79 31 148 14 69 33 153 41 187 7 34 14 71 14 82 0 11 7 24 16
29 22 12 87 8 91 -5z m-486 -29 c7 -20 6 -31 -5 -43 -26 -28 -30 -70 -10 -92
16 -18 16 -24 4 -72 -15 -62 -40 -113 -70 -144 -25 -28 -75 -31 -88 -5 -25 50
-3 189 46 290 42 87 102 119 123 66z m389 -456 c-1 -7 -7 -42 -14 -77 -22 -99
-63 -139 -115 -112 -19 11 -19 14 -6 51 8 22 14 43 14 45 -1 3 2 23 6 45 5 30
12 41 28 45 12 2 31 6 42 8 37 8 45 7 45 -5z"/>
<path d="M5225 1744 c-51 -18 -110 -66 -131 -106 -22 -42 -20 -117 4 -164 11
-21 53 -75 93 -119 39 -44 81 -100 92 -125 27 -61 27 -137 -2 -183 -45 -73
-160 -76 -197 -6 -35 69 6 141 89 153 25 3 30 13 17 36 -17 32 -64 48 -112 40
-105 -20 -162 -121 -133 -234 24 -92 106 -139 237 -137 198 3 319 122 306 302
-7 87 -32 130 -138 234 -45 44 -88 92 -96 107 -27 52 -13 127 27 149 34 18 96
15 119 -6 29 -26 27 -86 -5 -124 -25 -29 -25 -30 -6 -40 62 -34 131 23 131
106 0 47 -29 90 -76 112 -52 25 -157 27 -219 5z"/>
<path d="M785 1703 c-73 -38 -84 -75 -35 -116 40 -34 115 -61 240 -86 148 -29
227 -35 455 -34 284 1 489 33 614 95 77 39 85 94 19 133 -29 17 -30 17 -24 -2
9 -29 -2 -50 -39 -73 -36 -22 -157 -56 -232 -65 -27 -3 -59 -8 -73 -11 -53
-13 -475 -11 -575 2 -167 22 -282 59 -315 102 -19 23 -19 27 -5 49 18 27 11
28 -30 6z"/>
<path d="M6544 1710 c-11 -4 -28 -24 -38 -44 -15 -31 -15 -39 -2 -70 25 -59
93 -75 140 -33 78 68 -3 186 -100 147z"/>
<path d="M7398 1647 c-66 -9 -66 -9 -74 -46 -4 -20 -8 -38 -9 -41 0 -3 -4 -22
-8 -42 -6 -28 -13 -38 -26 -38 -12 0 -20 -9 -24 -26 -3 -18 -1 -24 9 -20 7 3
15 2 18 -2 2 -4 -14 -86 -35 -182 -42 -193 -45 -225 -26 -273 18 -41 37 -57
80 -64 48 -7 101 20 121 62 21 43 21 43 -11 47 -22 2 -29 9 -31 30 -3 24 62
360 73 378 2 4 18 6 35 5 16 -1 30 2 30 6 0 4 3 14 6 23 5 13 -1 16 -29 16
l-35 0 19 83 c10 45 19 85 19 89 0 7 -6 7 -102 -5z"/>
<path d="M6853 1522 c-57 -2 -73 -6 -77 -20 -4 -13 -39 -174 -81 -374 -14 -68
-78 -119 -122 -99 -30 14 -30 19 26 279 l37 172 -81 0 -82 0 -27 -122 c-70
-327 -72 -342 -32 -403 31 -48 127 -52 204 -10 23 13 42 21 42 17 0 -4 -16
-77 -34 -162 -19 -85 -33 -156 -31 -158 2 -3 74 12 136 28 32 9 37 15 43 49 3
22 15 80 27 129 l20 90 34 -14 c74 -31 182 0 239 67 106 125 131 414 42 472
-37 24 -96 27 -154 8 l-52 -18 6 32 c3 18 2 34 -3 36 -4 2 -40 3 -80 1z m176
-155 c12 -31 5 -140 -14 -203 -22 -75 -50 -120 -89 -138 -78 -37 -90 -18 -64
104 11 52 22 109 24 125 15 89 40 133 84 147 21 7 50 -10 59 -35z"/>
<path d="M734 1483 c3 -23 15 -76 27 -117 l22 -75 -51 -55 c-110 -121 -110
-276 0 -371 65 -55 174 -67 244 -27 17 10 16 11 -9 12 -54 0 -138 58 -178 120
-21 32 -37 106 -32 144 5 33 40 106 51 106 4 0 17 -22 29 -48 13 -27 57 -98
100 -158 69 -97 122 -197 123 -231 0 -25 78 -74 153 -98 66 -21 97 -25 209
-25 242 0 355 52 391 180 9 30 36 82 60 115 123 170 147 211 190 330 14 39 32
102 42 140 9 39 18 76 20 82 3 7 -12 2 -33 -12 -54 -36 -140 -64 -248 -81 -20
-3 -46 -8 -58 -10 -96 -19 -492 -27 -631 -11 -199 22 -349 63 -404 111 l-23
21 6 -42z"/>
<path d="M4267 1476 c-82 -30 -142 -99 -183 -212 -47 -129 -42 -247 14 -307
71 -76 236 -55 343 44 23 21 44 39 46 39 1 0 3 -9 3 -20 0 -10 17 -37 38 -59
31 -33 45 -40 93 -46 100 -12 175 23 210 99 28 61 24 70 -18 42 -95 -62 -163
-39 -163 54 0 26 5 30 43 40 126 31 202 107 215 213 9 81 -37 127 -125 127
-154 -2 -267 -131 -298 -342 -11 -74 -96 -138 -183 -138 -57 0 -82 26 -82 85
0 41 2 45 28 51 103 23 173 72 208 148 38 82 28 153 -27 182 -35 17 -112 17
-162 0z m107 -52 c37 -14 5 -134 -47 -177 -28 -22 -86 -51 -92 -45 -16 16 57
180 93 208 28 23 25 22 46 14z m441 -51 c-1 -64 -39 -123 -99 -153 -54 -25
-56 -25 -50 6 12 65 77 185 106 197 33 14 43 2 43 -50z"/>
<path d="M5755 1481 c-100 -32 -178 -135 -211 -277 -30 -133 -5 -242 65 -274
93 -42 234 -8 316 77 l27 28 -6 -40 c-4 -22 -9 -48 -12 -57 -5 -16 3 -18 79
-18 l84 0 37 183 c48 234 52 245 90 268 17 10 34 19 38 19 3 0 15 -17 25 -37
16 -34 22 -38 53 -36 96 4 92 163 -3 163 -29 0 -79 -20 -113 -45 -20 -15 -20
-14 -16 15 l4 30 -80 0 c-68 0 -81 -3 -86 -17 -3 -10 -20 -90 -38 -178 -29
-143 -36 -164 -64 -195 -66 -73 -181 -103 -224 -60 -52 52 5 305 84 380 40 37
62 18 59 -49 -1 -28 1 -51 5 -52 4 0 15 -2 24 -4 31 -6 61 28 63 70 3 52 -11
81 -50 100 -33 15 -113 19 -150 6z"/>
</g>
</svg>
