<?xml version="1.0" ?><!DOCTYPE svg  PUBLIC '-//W3C//DTD SVG 1.1//EN'  'http://www.w3.org/Graphics/SVG/1.1/DTD/svg11.dtd'><svg enable-background="new 0 0 48 48" height="48px" version="1.1" viewBox="0 0 48 48" width="48px" xml:space="preserve" xmlns="http://www.w3.org/2000/svg" xmlns:xlink="http://www.w3.org/1999/xlink"><g id="Expanded"><g><g><path d="M43,48H29c-0.553,0-1-0.448-1-1V1c0-0.552,0.447-1,1-1h14c0.553,0,1,0.448,1,1v46C44,47.552,43.553,48,43,48z M30,46h12     V2H30V46z"/></g><g><rect height="2" width="5" x="29" y="8"/></g><g><rect height="2" width="5" x="29" y="14"/></g><g><rect height="2" width="5" x="29" y="20"/></g><g><rect height="2" width="5" x="29" y="26"/></g><g><rect height="2" width="5" x="29" y="32"/></g><g><rect height="2" width="5" x="29" y="38"/></g><g><path d="M15,46h-4c-2.757,0-5-2.243-5-5V12c0-0.197,0.059-0.391,0.168-0.555l6-9c0.371-0.557,1.293-0.557,1.664,0l6,9     C19.941,11.609,20,11.803,20,12v29C20,43.757,17.757,46,15,46z M8,12.303V41c0,1.654,1.346,3,3,3h4c1.654,0,3-1.346,3-3V12.303     l-5-7.5L8,12.303z"/></g><g><path d="M19,40H7c-0.553,0-1-0.448-1-1s0.447-1,1-1h12c0.553,0,1,0.448,1,1S19.553,40,19,40z"/></g><g><path d="M19,36H7c-0.553,0-1-0.448-1-1s0.447-1,1-1h12c0.553,0,1,0.448,1,1S19.553,36,19,36z"/></g><g><path d="M11,36c-0.553,0-1-0.448-1-1V16c0-0.552,0.447-1,1-1s1,0.448,1,1v19C12,35.552,11.553,36,11,36z"/></g><g><path d="M15,36c-0.553,0-1-0.448-1-1V16c0-0.552,0.447-1,1-1s1,0.448,1,1v19C16,35.552,15.553,36,15,36z"/></g><g><rect height="2" width="6" x="10" y="7"/></g><g><path d="M10,17c-2.206,0-4-1.794-4-4c0-0.552,0.447-1,1-1s1,0.448,1,1c0,1.103,0.897,2,2,2s2-0.897,2-2c0-0.552,0.447-1,1-1     s1,0.448,1,1C14,15.206,12.206,17,10,17z"/></g><g><path d="M16,17c-2.206,0-4-1.794-4-4c0-0.552,0.447-1,1-1s1,0.448,1,1c0,1.103,0.897,2,2,2s2-0.897,2-2c0-0.552,0.447-1,1-1     s1,0.448,1,1C20,15.206,18.206,17,16,17z"/></g></g></g></svg>