<?xml version="1.0" ?><!DOCTYPE svg  PUBLIC '-//W3C//DTD SVG 1.1//EN'  'http://www.w3.org/Graphics/SVG/1.1/DTD/svg11.dtd'><svg enable-background="new 0 0 48 48" height="48px" version="1.1" viewBox="0 0 48 48" width="48px" xml:space="preserve" xmlns="http://www.w3.org/2000/svg" xmlns:xlink="http://www.w3.org/1999/xlink"><g id="Expanded"><g><g><path d="M11.003,46L11.003,46c-1.217,0-2.4-0.239-3.517-0.712c-0.307-0.13-0.528-0.403-0.592-0.729s0.039-0.663,0.274-0.898     l3.535-3.534v-2.829H7.875L4.34,40.832c-0.235,0.235-0.57,0.34-0.898,0.274c-0.326-0.063-0.6-0.285-0.729-0.592     c-1.437-3.396-0.683-7.271,1.92-9.874c1.697-1.698,3.955-2.633,6.357-2.633c0.987,0,1.952,0.157,2.876,0.469l14.603-14.603     c-1.092-3.233-0.278-6.793,2.163-9.234c1.698-1.697,3.956-2.632,6.358-2.632c1.217,0,2.4,0.239,3.517,0.712     c0.307,0.13,0.528,0.403,0.592,0.729s-0.039,0.663-0.274,0.898L37.29,7.882v2.829h2.829l3.534-3.535     c0.235-0.235,0.568-0.34,0.898-0.274c0.326,0.063,0.6,0.285,0.729,0.592c1.437,3.396,0.683,7.271-1.92,9.874     C41.663,19.065,39.405,20,37.003,20c-0.987,0-1.952-0.157-2.876-0.469L19.524,34.134c1.092,3.233,0.277,6.793-2.164,9.234     C15.663,45.065,13.405,46,11.003,46z M9.766,43.892C10.171,43.964,10.584,44,11.003,44c1.868,0,3.623-0.727,4.943-2.046     c2.025-2.024,2.611-5.04,1.493-7.681c-0.159-0.375-0.074-0.809,0.214-1.097L33.169,17.66c0.289-0.288,0.724-0.374,1.097-0.214     C35.135,17.813,36.056,18,37.003,18c1.868,0,3.623-0.727,4.943-2.047c1.649-1.649,2.344-3.956,1.94-6.183l-2.647,2.647     c-0.188,0.188-0.442,0.293-0.707,0.293H36.29c-0.552,0-1-0.447-1-1V7.468c0-0.266,0.105-0.52,0.293-0.707l2.646-2.645     c-0.406-0.072-0.819-0.108-1.238-0.108c-1.868,0-3.624,0.727-4.944,2.046c-2.024,2.025-2.61,5.04-1.492,7.681     c0.159,0.375,0.074,0.809-0.214,1.097L14.824,30.348c-0.288,0.288-0.723,0.373-1.097,0.214c-0.869-0.367-1.79-0.554-2.737-0.554     c-1.868,0-3.624,0.727-4.943,2.047c-1.649,1.649-2.344,3.956-1.94,6.183l2.647-2.647c0.188-0.188,0.442-0.293,0.707-0.293h4.243     c0.552,0,1,0.447,1,1v4.243c0,0.266-0.105,0.52-0.293,0.707L9.766,43.892z"/></g><g><path d="M42,46c-1.068,0-2.073-0.416-2.829-1.172l-9.192-9.193c-0.391-0.391-0.391-1.023,0-1.414l4.242-4.242     c0.391-0.391,1.023-0.391,1.414,0l9.193,9.193C45.584,39.927,46,40.932,46,42c0,1.069-0.417,2.074-1.172,2.829     C44.073,45.584,43.069,46,42,46z M32.101,34.928l8.485,8.486c0.755,0.755,2.072,0.756,2.828,0C43.792,43.036,44,42.534,44,42     s-0.208-1.037-0.585-1.414L34.929,32.1L32.101,34.928z"/></g><g><rect height="2" transform="matrix(0.7071 0.7071 -0.7071 0.7071 15.776 -6.535)" width="16.137" x="7.708" y="14.776"/></g><g><path d="M28.564,38.05c-0.256,0-0.512-0.098-0.707-0.293c-0.391-0.391-0.391-1.023,0-1.414l8.485-8.485     c0.391-0.391,1.023-0.391,1.414,0s0.391,1.023,0,1.414l-8.485,8.485C29.076,37.952,28.82,38.05,28.564,38.05z"/></g><g><path d="M8.657,12.485c-0.256,0-0.512-0.098-0.707-0.293L2.293,6.535C2.105,6.348,2,6.094,2,5.828s0.105-0.52,0.293-0.707     l2.828-2.828c0.391-0.391,1.023-0.391,1.414,0l5.657,5.657c0.188,0.188,0.293,0.441,0.293,0.707s-0.105,0.52-0.293,0.707     l-2.828,2.828C9.169,12.388,8.913,12.485,8.657,12.485z M4.414,5.828l4.243,4.243l1.414-1.414L5.828,4.414L4.414,5.828z"/></g><g><rect height="2" transform="matrix(0.7071 0.7071 -0.7071 0.7071 29.3955 -12.1756)" width="10.381" x="24.204" y="28.394"/></g></g></g></svg>