<?xml version="1.0" ?><!DOCTYPE svg  PUBLIC '-//W3C//DTD SVG 1.1//EN'  'http://www.w3.org/Graphics/SVG/1.1/DTD/svg11.dtd'><svg enable-background="new 0 0 48 48" height="48px" version="1.1" viewBox="0 0 48 48" width="48px" xml:space="preserve" xmlns="http://www.w3.org/2000/svg" xmlns:xlink="http://www.w3.org/1999/xlink"><g id="Expanded"><g><g><polygon points="48,48 11,48 11,46 46,46 46,11 48,11    "/></g><g><polygon points="44,44 5,44 5,42 42,42 42,5 44,5    "/></g><g><path d="M38,2v36H2V2H38 M40,0H0v40h40V0L40,0z"/></g><g><path d="M9.857,31.515l-1.715-1.029l6-10c0.167-0.277,0.458-0.458,0.78-0.482c0.327-0.028,0.639,0.108,0.845,0.357l4.143,4.971     l7.257-10.886c0.208-0.312,0.574-0.48,0.946-0.439c0.373,0.043,0.69,0.291,0.822,0.643l6,16l-1.873,0.702l-5.314-14.172     l-6.917,10.375c-0.175,0.263-0.464,0.427-0.779,0.444c-0.314,0.013-0.62-0.116-0.821-0.358l-4.099-4.918L9.857,31.515z"/></g><g><path d="M12,14c-2.206,0-4-1.794-4-4s1.794-4,4-4s4,1.794,4,4S14.206,14,12,14z M12,8c-1.103,0-2,0.897-2,2s0.897,2,2,2     s2-0.897,2-2S13.103,8,12,8z"/></g><g><rect height="2" width="40" y="30"/></g></g></g></svg>