<?xml version="1.0" ?><!DOCTYPE svg  PUBLIC '-//W3C//DTD SVG 1.1//EN'  'http://www.w3.org/Graphics/SVG/1.1/DTD/svg11.dtd'><svg enable-background="new 0 0 48 48" height="48px" version="1.1" viewBox="0 0 48 48" width="48px" xml:space="preserve" xmlns="http://www.w3.org/2000/svg" xmlns:xlink="http://www.w3.org/1999/xlink"><g id="Expanded"><g><g><path d="M25,48H5c-2.757,0-5-2.243-5-5v-6c0-0.552,0.448-1,1-1s1,0.448,1,1c0,1.654,1.346,3,3,3h20c1.654,0,3-1.346,3-3     c0-0.552,0.448-1,1-1s1,0.448,1,1v6C30,45.757,27.757,48,25,48z M2,40.998V43c0,1.654,1.346,3,3,3h20c1.654,0,3-1.346,3-3v-2.002     C27.164,41.626,26.125,42,25,42H5C3.875,42,2.836,41.626,2,40.998z"/></g><g><path d="M40,48c-1.387,0-6.043-0.129-7.707-1.793C32.105,46.02,32,45.765,32,45.5v-41c0-0.265,0.105-0.52,0.293-0.707     C33.957,2.129,38.613,2,40,2s6.043,0.129,7.707,1.793C47.895,3.98,48,4.235,48,4.5v41c0,0.265-0.105,0.52-0.293,0.707     C46.043,47.871,41.387,48,40,48z M34,45.01c0.89,0.521,3.064,0.99,6,0.99s5.11-0.469,6-0.99V4.99C45.11,4.469,42.936,4,40,4     s-5.11,0.469-6,0.99V45.01z"/></g><g><path d="M28.2,37.6l-4.32-5.76C23.016,30.688,21.64,30,20.2,30H9.8c-1.44,0-2.815,0.688-3.68,1.84L1.8,37.6l-1.6-1.2l4.32-5.76     C5.76,28.987,7.734,28,9.8,28h10.4c2.066,0,4.04,0.987,5.279,2.64l4.32,5.76L28.2,37.6z"/></g><g><path d="M40,17.5c-2.757,0-5-2.243-5-5s2.243-5,5-5s5,2.243,5,5S42.757,17.5,40,17.5z M40,9.5c-1.654,0-3,1.346-3,3s1.346,3,3,3     s3-1.346,3-3S41.654,9.5,40,9.5z"/></g><g><path d="M37,18.5c-1.106,0-2,0.895-2,2s0.894,2,2,2c1.105,0,2-0.895,2-2S38.105,18.5,37,18.5L37,18.5z"/></g><g><path d="M43,18.5c-1.106,0-2,0.895-2,2s0.894,2,2,2c1.105,0,2-0.895,2-2S44.105,18.5,43,18.5L43,18.5z"/></g></g></g></svg>