<?xml version="1.0" ?><!DOCTYPE svg  PUBLIC '-//W3C//DTD SVG 1.1//EN'  'http://www.w3.org/Graphics/SVG/1.1/DTD/svg11.dtd'><svg enable-background="new 0 0 48 48" height="48px" version="1.1" viewBox="0 0 48 48" width="48px" xml:space="preserve" xmlns="http://www.w3.org/2000/svg" xmlns:xlink="http://www.w3.org/1999/xlink"><g id="Expanded"><g><g><path d="M42,4c-1.106,0-2,0.896-2,2s0.894,2,2,2c1.105,0,2-0.896,2-2S43.105,4,42,4L42,4z"/></g><g><path d="M6,4C4.894,4,4,4.896,4,6s0.894,2,2,2c1.105,0,2-0.896,2-2S7.105,4,6,4L6,4z"/></g><g><path d="M42,40c-1.106,0-2,0.896-2,2s0.894,2,2,2c1.105,0,2-0.896,2-2S43.105,40,42,40L42,40z"/></g><g><path d="M6,40c-1.106,0-2,0.896-2,2s0.894,2,2,2c1.105,0,2-0.896,2-2S7.105,40,6,40L6,40z"/></g><g><path d="M24,29c-2.757,0-5-2.243-5-5s2.243-5,5-5s5,2.243,5,5S26.757,29,24,29z M24,21c-1.654,0-3,1.346-3,3s1.346,3,3,3     s3-1.346,3-3S25.654,21,24,21z"/></g><g><path d="M24,42c-9.925,0-18-8.075-18-18S14.075,6,24,6s18,8.075,18,18S33.925,42,24,42z M24,8C15.178,8,8,15.178,8,24     s7.178,16,16,16s16-7.178,16-16S32.822,8,24,8z"/></g><g><path d="M42,48L42,48c-1.603,0-3.109-0.624-4.242-1.757l-3.049-3.049C31.426,45.032,27.74,46,24,46s-7.426-0.968-10.709-2.806     l-3.049,3.049C9.109,47.376,7.603,48,6,48s-3.109-0.624-4.242-1.757C0.624,45.109,0,43.603,0,42c0-1.603,0.624-3.109,1.758-4.242     l3.048-3.048C2.968,31.426,2,27.74,2,24s0.968-7.426,2.806-10.709l-3.048-3.048C0.624,9.109,0,7.603,0,6s0.624-3.109,1.758-4.243     C2.891,0.625,4.397,0,6,0s3.109,0.625,4.242,1.758l3.049,3.048C16.574,2.968,20.26,2,24,2s7.426,0.968,10.709,2.806l3.049-3.048     C38.891,0.625,40.397,0,42,0s3.109,0.625,4.242,1.758C47.376,2.891,48,4.397,48,6s-0.624,3.109-1.758,4.243l-3.049,3.048     C45.032,16.575,46,20.26,46,24s-0.968,7.425-2.807,10.709l3.049,3.048C47.376,38.891,48,40.397,48,42     c0,1.603-0.624,3.109-1.758,4.243C45.109,47.376,43.603,48,42,48z M35.023,40.68l4.148,4.149C39.927,45.584,40.932,46,42,46     s2.072-0.416,2.828-1.171C45.584,44.073,46,43.068,46,42c0-1.068-0.416-2.072-1.172-2.828l-4.149-4.148l0.408-0.671     C42.992,31.214,44,27.634,44,24s-1.008-7.214-2.913-10.353l-0.408-0.671l4.149-4.148C45.584,8.073,46,7.068,46,6     s-0.416-2.073-1.172-2.828C44.072,2.417,43.068,2,42,2s-2.072,0.417-2.828,1.172L35.023,7.32l-0.672-0.408     C31.215,5.007,27.635,4,24,4s-7.215,1.007-10.352,2.913L12.977,7.32L8.828,3.172C8.072,2.417,7.068,2,6,2     S3.928,2.417,3.172,3.172S2,4.932,2,6s0.416,2.073,1.172,2.829l4.148,4.148l-0.408,0.671C5.007,16.785,4,20.365,4,24     s1.007,7.215,2.912,10.353l0.408,0.671l-4.148,4.148C2.416,39.928,2,40.932,2,42c0,1.068,0.416,2.073,1.172,2.829     C3.928,45.584,4.932,46,6,46s2.073-0.416,2.828-1.171l4.148-4.149l0.672,0.408C16.785,42.993,20.365,44,24,44     s7.215-1.007,10.352-2.913L35.023,40.68z"/></g></g></g></svg>