<?xml version="1.0" ?><!DOCTYPE svg  PUBLIC '-//W3C//DTD SVG 1.1//EN'  'http://www.w3.org/Graphics/SVG/1.1/DTD/svg11.dtd'><svg enable-background="new 0 0 48 48" height="48px" version="1.1" viewBox="0 0 48 48" width="48px" xml:space="preserve" xmlns="http://www.w3.org/2000/svg" xmlns:xlink="http://www.w3.org/1999/xlink"><g id="Expanded"><g><g><path d="M22.007,35c-9.374,0-17-7.626-17-17s7.626-17,17-17s17,7.626,17,17S31.381,35,22.007,35z M22.007,3     c-8.271,0-15,6.729-15,15s6.729,15,15,15s15-6.729,15-15S30.278,3,22.007,3z"/></g><g><path d="M22.007,39.99c-5.634,0-11.268-2.145-15.557-6.433l1.414-1.414c7.799,7.797,20.487,7.798,28.284,0     c7.798-7.798,7.798-20.487,0-28.285l1.414-1.414c8.578,8.578,8.578,22.535,0,31.113C33.274,37.845,27.641,39.99,22.007,39.99z"/></g><g><rect height="4.05" width="2" x="20.007" y="38.976"/></g><g><rect height="4.05" width="2" x="22.007" y="38.976"/></g><g><path d="M36.973,48H7.04l2.403-1.8c3.668-2.748,8.013-4.2,12.563-4.2s8.895,1.452,12.562,4.2L36.973,48z M13.547,46h16.92     c-2.617-1.315-5.49-2-8.46-2S16.163,44.685,13.547,46z"/></g><g><path d="M5.743,35.264c-0.256,0-0.512-0.098-0.707-0.293c-0.391-0.391-0.391-1.023,0-1.414l2.828-2.828     c0.391-0.391,1.023-0.391,1.414,0s0.391,1.023,0,1.414L6.45,34.971C6.255,35.166,5.999,35.264,5.743,35.264z"/></g><g><path d="M35.441,5.565c-0.256,0-0.512-0.098-0.707-0.293c-0.391-0.391-0.391-1.023,0-1.414l2.828-2.828     c0.391-0.391,1.023-0.391,1.414,0s0.391,1.023,0,1.414l-2.828,2.828C35.953,5.468,35.697,5.565,35.441,5.565z"/></g></g></g></svg>