<?xml version="1.0" ?><!DOCTYPE svg  PUBLIC '-//W3C//DTD SVG 1.1//EN'  'http://www.w3.org/Graphics/SVG/1.1/DTD/svg11.dtd'><svg enable-background="new 0 0 48 48" height="48px" version="1.1" viewBox="0 0 48 48" width="48px" xml:space="preserve" xmlns="http://www.w3.org/2000/svg" xmlns:xlink="http://www.w3.org/1999/xlink"><g id="Expanded"><g><g><path d="M40,48c-3.309,0-6-2.691-6-6V9c0-1.103-0.897-2-2-2h-1V5h1c2.206,0,4,1.794,4,4v33c0,2.206,1.794,4,4,4s4-1.794,4-4V27h2     v15C46,45.309,43.309,48,40,48z"/></g><g><path d="M45,28c-1.654,0-3-1.346-3-3v-6c0-1.654,1.346-3,3-3s3,1.346,3,3v6C48,26.654,46.654,28,45,28z M45,18     c-0.552,0-1,0.449-1,1v6c0,0.551,0.448,1,1,1s1-0.449,1-1v-6C46,18.449,45.552,18,45,18z"/></g><g><path d="M44,26h-2c-2.206,0-4-1.794-4-4s1.794-4,4-4h2V26z M42,20c-1.103,0-2,0.897-2,2s0.897,2,2,2V20z"/></g><g><path d="M27,48H5c-2.757,0-5-2.243-5-5V5c0-2.757,2.243-5,5-5h22c2.757,0,5,2.243,5,5v38C32,45.757,29.757,48,27,48z M5,2     C3.346,2,2,3.346,2,5v38c0,1.654,1.346,3,3,3h22c1.654,0,3-1.346,3-3V5c0-1.654-1.346-3-3-3H5z"/></g><g><path d="M31,10H1c-0.553,0-1-0.448-1-1s0.447-1,1-1h30c0.553,0,1,0.448,1,1S31.553,10,31,10z"/></g><g><path d="M31,40H1c-0.553,0-1-0.448-1-1s0.447-1,1-1h30c0.553,0,1,0.448,1,1S31.553,40,31,40z"/></g><g><path d="M16,41c-1.104,0-2,0.896-2,2s0.896,2,2,2s2-0.896,2-2S17.104,41,16,41L16,41z"/></g><g><path d="M16,4c-0.553,0-1,0.447-1,1s0.447,1,1,1c0.553,0,1-0.447,1-1S16.553,4,16,4L16,4z"/></g></g></g></svg>