<?xml version="1.0" ?><!DOCTYPE svg  PUBLIC '-//W3C//DTD SVG 1.1//EN'  'http://www.w3.org/Graphics/SVG/1.1/DTD/svg11.dtd'><svg enable-background="new 0 0 48 48" height="48px" version="1.1" viewBox="0 0 48 48" width="48px" xml:space="preserve" xmlns="http://www.w3.org/2000/svg" xmlns:xlink="http://www.w3.org/1999/xlink"><g id="Expanded"><g><g><path d="M33,20H17c-2.757,0-5-2.243-5-5V2h26v13C38,17.757,35.757,20,33,20z M14,4v11c0,1.654,1.346,3,3,3h16     c1.654,0,3-1.346,3-3V4H14z"/></g><g><path d="M34,46H16V24h18V46z M18,44h14V26H18V44z"/></g><g><path d="M9,40c-2.757,0-5-2.243-5-5s2.243-5,5-5s5,2.243,5,5S11.757,40,9,40z M9,32c-1.654,0-3,1.346-3,3s1.346,3,3,3     s3-1.346,3-3S10.654,32,9,32z"/></g><g><path d="M29,39c-0.419,0-0.809-0.265-0.949-0.684L26.279,33h-2.559l-1.772,5.316c-0.175,0.523-0.74,0.81-1.265,0.632     c-0.524-0.175-0.807-0.741-0.632-1.265l2-6C22.188,31.275,22.569,31,23,31h4c0.431,0,0.812,0.275,0.949,0.684l2,6     c0.175,0.524-0.108,1.09-0.632,1.265C29.211,38.984,29.104,39,29,39z"/></g><g><rect height="10" width="2" x="16" y="6"/></g><g><rect height="10" width="2" x="20" y="6"/></g><g><rect height="10" width="2" x="24" y="6"/></g><g><rect height="10" width="2" x="28" y="6"/></g><g><rect height="10" width="2" x="32" y="6"/></g><g><rect height="6" width="2" x="18" y="19"/></g><g><rect height="6" width="2" x="30" y="19"/></g><g><path d="M44,38h-8v-6h8V38z M38,36h4v-2h-4V36z"/></g><g><path d="M41,44h-8v-2h8c2.757,0,5-2.243,5-5v-4c0-2.757-2.243-5-5-5h-8v-2h8c3.86,0,7,3.14,7,7v4C48,40.86,44.86,44,41,44z"/></g><g><path d="M17,44H7c-3.86,0-7-3.14-7-7v-4c0-3.86,3.14-7,7-7h10v2H7c-2.757,0-5,2.243-5,5v4c0,2.757,2.243,5,5,5h10V44z"/></g></g></g></svg>