<?xml version="1.0" ?><!DOCTYPE svg  PUBLIC '-//W3C//DTD SVG 1.1//EN'  'http://www.w3.org/Graphics/SVG/1.1/DTD/svg11.dtd'><svg enable-background="new 0 0 48 48" height="48px" version="1.1" viewBox="0 0 48 48" width="48px" xml:space="preserve" xmlns="http://www.w3.org/2000/svg" xmlns:xlink="http://www.w3.org/1999/xlink"><g id="Expanded"><g><g><path d="M20,28c-1.104,0-2,0.896-2,2s0.896,2,2,2s2-0.896,2-2S21.104,28,20,28L20,28z"/></g><g><g><path d="M20,26c2.206,0,4,1.794,4,4s-1.794,4-4,4s-4-1.794-4-4S17.794,26,20,26 M20,24c-3.314,0-6,2.687-6,6      c0,3.314,2.686,6,6,6c3.313,0,6-2.686,6-6C26,26.686,23.313,24,20,24L20,24z"/></g></g><g><g><path d="M20,20c5.514,0,10,4.486,10,10s-4.486,10-10,10s-10-4.486-10-10S14.486,20,20,20 M20,18c-6.627,0-12,5.373-12,12      s5.373,12,12,12s12-5.373,12-12S26.627,18,20,18L20,18z"/></g></g><g><g><path d="M20,14c8.822,0,16,7.178,16,16s-7.178,16-16,16S4,38.822,4,30S11.178,14,20,14 M20,12c-9.94,0-18,8.06-18,18      s8.06,18,18,18c9.94,0,18-8.06,18-18S29.94,12,20,12L20,12z"/></g></g><g><rect height="31.113" transform="matrix(0.7071 0.7071 -0.7071 0.7071 22.5147 -16.3553)" width="2" x="30" y="3.444"/></g><g><g><path d="M41,4.911V7v2h2h2.084c-1.31,2.891-3.447,6.24-5.66,6.24c-0.899,0-1.912-0.557-3.01-1.654      c-1.975-1.975-1.683-3.165-1.587-3.556C35.313,8.047,38.267,6.146,41,4.911 M43,2c0,0-16,5-8,13c1.6,1.6,3.08,2.24,4.424,2.24      C44.8,17.24,48,7,48,7h-5V2L43,2z"/></g></g><g><rect height="7" width="2" x="37" y="5"/></g><g><path d="M3,48c-0.256,0-0.512-0.098-0.707-0.293c-0.391-0.391-0.391-1.023,0-1.414l4.272-4.272c0.391-0.391,1.023-0.391,1.414,0     s0.391,1.023,0,1.414l-4.272,4.272C3.512,47.902,3.256,48,3,48z"/></g><g><path d="M37,48c-0.256,0-0.512-0.098-0.707-0.293l-4.273-4.273c-0.391-0.391-0.391-1.023,0-1.414s1.023-0.391,1.414,0     l4.273,4.273c0.391,0.391,0.391,1.023,0,1.414C37.512,47.902,37.256,48,37,48z"/></g></g></g></svg>