<?xml version="1.0" ?><!DOCTYPE svg  PUBLIC '-//W3C//DTD SVG 1.1//EN'  'http://www.w3.org/Graphics/SVG/1.1/DTD/svg11.dtd'><svg enable-background="new 0 0 48 48" height="48px" version="1.1" viewBox="0 0 48 48" width="48px" xml:space="preserve" xmlns="http://www.w3.org/2000/svg" xmlns:xlink="http://www.w3.org/1999/xlink"><g id="Expanded"><g><g><path d="M29,48H19c-2.206,0-4-1.794-4-4c0-1.826,2.605-6.56,3.128-7.489c0.171-0.304,0.486-0.497,0.834-0.51     c0.358-0.037,0.678,0.154,0.87,0.444l1.123,1.686l2.188-3.646c0.361-0.602,1.354-0.602,1.715,0l2.188,3.646l1.123-1.686     c0.192-0.29,0.509-0.484,0.87-0.444c0.348,0.013,0.663,0.206,0.834,0.51C30.395,37.44,33,42.174,33,44C33,46.206,31.206,48,29,48     z M19.09,38.938C17.981,41.069,17,43.301,17,44c0,1.103,0.897,2,2,2h10c1.103,0,2-0.897,2-2c0-0.699-0.981-2.932-2.09-5.062     l-1.078,1.617c-0.189,0.284-0.52,0.432-0.855,0.445c-0.343-0.009-0.657-0.191-0.834-0.485L24,36.943l-2.143,3.571     c-0.177,0.294-0.491,0.477-0.834,0.485c-0.336-0.016-0.666-0.161-0.855-0.445L19.09,38.938z"/></g><g><path d="M35,32H13c-2.757,0-5-2.243-5-5V5c0-0.553,0.447-1,1-1h30c0.553,0,1,0.447,1,1v22C40,29.757,37.757,32,35,32z M10,6v21     c0,1.654,1.346,3,3,3h22c1.654,0,3-1.346,3-3V6H10z"/></g><g><path d="M9,12H5c-0.553,0-1-0.447-1-1s0.447-1,1-1h4c0.553,0,1,0.447,1,1S9.553,12,9,12z"/></g><g><path d="M43,11.333h-4c-0.553,0-1-0.447-1-1s0.447-1,1-1h4c0.553,0,1,0.447,1,1S43.553,11.333,43,11.333z"/></g><g><path d="M41,6H7C6.447,6,6,5.553,6,5s0.447-1,1-1h34c0.553,0,1,0.447,1,1S41.553,6,41,6z"/></g><g><path d="M28,6c-0.553,0-1-0.447-1-1c0-1.654-1.346-3-3-3s-3,1.346-3,3c0,0.553-0.447,1-1,1s-1-0.447-1-1c0-2.757,2.243-5,5-5     s5,2.243,5,5C29,5.553,28.553,6,28,6z"/></g></g></g></svg>