<?xml version="1.0" ?><!DOCTYPE svg  PUBLIC '-//W3C//DTD SVG 1.1//EN'  'http://www.w3.org/Graphics/SVG/1.1/DTD/svg11.dtd'><svg enable-background="new 0 0 48 48" height="48px" version="1.1" viewBox="0 0 48 48" width="48px" xml:space="preserve" xmlns="http://www.w3.org/2000/svg" xmlns:xlink="http://www.w3.org/1999/xlink"><g id="Expanded"><g><g><rect height="2" transform="matrix(0.7071 0.7071 -0.7071 0.7071 30.4021 -20.4851)" width="7.999" x="35.929" y="25.456"/></g><g><rect height="2" transform="matrix(0.7071 0.7071 -0.7071 0.7071 12.0173 -12.8698)" width="7.999" x="17.544" y="7.071"/></g><g><path d="M18.716,47.285c-4.808,0-9.328-1.872-12.729-5.272c-7.019-7.018-7.019-18.438,0-25.456L22.251,0.293     c0.391-0.391,1.023-0.391,1.414,0l5.657,5.657c0.188,0.188,0.293,0.442,0.293,0.707s-0.105,0.52-0.293,0.707l-15.85,15.849     c-3.119,3.12-3.119,8.195,0,11.314c1.511,1.511,3.52,2.343,5.657,2.343c2.137,0,4.146-0.833,5.657-2.343l15.849-15.85     c0.375-0.375,1.039-0.375,1.414,0l5.657,5.657C47.895,24.522,48,24.777,48,25.042s-0.105,0.52-0.293,0.707L31.443,42.013     C28.044,45.413,23.523,47.285,18.716,47.285z M22.958,2.414L7.401,17.971c-6.238,6.239-6.238,16.389,0,22.628     c3.022,3.022,7.041,4.686,11.314,4.686s8.292-1.664,11.313-4.686l15.557-15.557l-4.243-4.243L26.201,35.941     c-1.89,1.889-4.4,2.929-7.071,2.929c-2.672,0-5.183-1.041-7.071-2.929c-3.898-3.898-3.898-10.243,0-14.143L27.201,6.657     L22.958,2.414z"/></g></g></g></svg>