<?xml version="1.0" ?><!DOCTYPE svg  PUBLIC '-//W3C//DTD SVG 1.1//EN'  'http://www.w3.org/Graphics/SVG/1.1/DTD/svg11.dtd'><svg enable-background="new 0 0 48 48" height="48px" version="1.1" viewBox="0 0 48 48" width="48px" xml:space="preserve" xmlns="http://www.w3.org/2000/svg" xmlns:xlink="http://www.w3.org/1999/xlink"><g id="Expanded"><g><g><path d="M44,46H4c-2.206,0-4-1.794-4-4V16c0-2.206,1.794-4,4-4h40c2.206,0,4,1.794,4,4v26C48,44.206,46.206,46,44,46z M4,14     c-1.103,0-2,0.897-2,2v26c0,1.103,0.897,2,2,2h40c1.103,0,2-0.897,2-2V16c0-1.103-0.897-2-2-2H4z"/></g><g><path d="M32,9h-2V7c0-0.552-0.449-1-1-1H19c-0.551,0-1,0.448-1,1v2h-2V7c0-1.654,1.346-3,3-3h10c1.654,0,3,1.346,3,3V9z"/></g><g><path d="M40,22H7c-0.552,0-1-0.447-1-1s0.448-1,1-1h33c0.552,0,1,0.447,1,1S40.552,22,40,22z"/></g><g><path d="M40,30H7c-0.552,0-1-0.447-1-1s0.448-1,1-1h33c0.552,0,1,0.447,1,1S40.552,30,40,30z"/></g><g><path d="M40,38H7c-0.552,0-1-0.447-1-1s0.448-1,1-1h33c0.552,0,1,0.447,1,1S40.552,38,40,38z"/></g><g><rect height="4" width="2" x="16" y="9"/></g><g><rect height="4" width="2" x="30" y="9"/></g><g><rect height="2" width="14" x="17" y="8"/></g></g></g></svg>