<?xml version="1.0" ?><!DOCTYPE svg  PUBLIC '-//W3C//DTD SVG 1.1//EN'  'http://www.w3.org/Graphics/SVG/1.1/DTD/svg11.dtd'><svg enable-background="new 0 0 48 48" height="48px" version="1.1" viewBox="0 0 48 48" width="48px" xml:space="preserve" xmlns="http://www.w3.org/2000/svg" xmlns:xlink="http://www.w3.org/1999/xlink"><g id="Expanded"><g><g><path d="M14.707,12.707l-1.414-1.414l11-11C24.48,0.105,24.735,0,25,0c0.001,0,0.002,0,0.003,0     c0.266,0.001,0.521,0.107,0.708,0.297l10.875,11l-1.422,1.406L24.996,2.418L14.707,12.707z"/></g><g><path d="M48,48H0V11h48V48z M2,46h44V13H2V46z"/></g><g><path d="M44,44H4V15h40V44z M6,42h36V17H6V42z"/></g><g><path d="M27.232,43.64c-0.335-0.402-6.723-8.15-9.232-17c-2.509,8.851-8.896,16.598-9.232,17l-1.537-1.28     C7.329,42.243,17,30.503,17,20c0-0.552,0.448-1,1-1s1,0.448,1,1c0,10.516,9.67,22.243,9.768,22.36L27.232,43.64z"/></g><g><rect height="2" width="10" x="13" y="35"/></g><g><path d="M38,43h-2v-6h-2v6h-2v-7c0-0.552,0.448-1,1-1h4c0.552,0,1,0.448,1,1V43z"/></g><g><path d="M38,36h-2v-6c0-0.552,0.448-1,1-1h6v2h-5V36z"/></g></g></g></svg>