<?xml version="1.0" ?><!DOCTYPE svg  PUBLIC '-//W3C//DTD SVG 1.1//EN'  'http://www.w3.org/Graphics/SVG/1.1/DTD/svg11.dtd'><svg enable-background="new 0 0 48 48" height="48px" version="1.1" viewBox="0 0 48 48" width="48px" xml:space="preserve" xmlns="http://www.w3.org/2000/svg" xmlns:xlink="http://www.w3.org/1999/xlink"><g id="Expanded"><g><g><path d="M33,40H5c-1.654,0-3-1.346-3-3V19c0-1.654,1.346-3,3-3h28c1.654,0,3,1.346,3,3v18C36,38.654,34.654,40,33,40z M5,18     c-0.552,0-1,0.449-1,1v18c0,0.551,0.448,1,1,1h28c0.552,0,1-0.449,1-1V19c0-0.551-0.448-1-1-1H5z"/></g><g><path d="M12,33c-2.206,0-4-1.794-4-4s1.794-4,4-4s4,1.794,4,4S14.206,33,12,33z M12,27c-1.103,0-2,0.897-2,2s0.897,2,2,2     s2-0.897,2-2S13.103,27,12,27z"/></g><g><path d="M26,33c-2.206,0-4-1.794-4-4s1.794-4,4-4s4,1.794,4,4S28.206,33,26,33z M26,27c-1.103,0-2,0.897-2,2s0.897,2,2,2     s2-0.897,2-2S27.103,27,26,27z"/></g><g><path d="M26,27H12c-0.553,0-1-0.448-1-1s0.447-1,1-1h14c0.553,0,1,0.448,1,1S26.553,27,26,27z"/></g><g><path d="M23,18c-0.553,0-1-0.448-1-1v-4c0-0.551-0.448-1-1-1H1c-0.553,0-1-0.448-1-1s0.447-1,1-1h20c1.654,0,3,1.346,3,3v4     C24,17.552,23.553,18,23,18z"/></g><g><path d="M31,18c-0.553,0-1-0.448-1-1v-6c0-1.654,1.346-3,3-3h4c0.553,0,1,0.448,1,1s-0.447,1-1,1h-4c-0.552,0-1,0.449-1,1v6     C32,17.552,31.553,18,31,18z"/></g><g><path d="M45,12h-6c-1.654,0-3-1.346-3-3s1.346-3,3-3h6c1.654,0,3,1.346,3,3S46.654,12,45,12z M39,8c-0.552,0-1,0.449-1,1     s0.448,1,1,1h6c0.552,0,1-0.449,1-1s-0.448-1-1-1H39z"/></g><g><path d="M45.923,37.462c-0.27,0-0.541-0.053-0.798-0.16l-10.51-4.379c-0.51-0.212-0.751-0.798-0.538-1.308     s0.801-0.75,1.308-0.538l10.509,4.379L46,35.385v-12.77l-0.491-0.994l0.385,0.923l-10.509,4.379     c-0.508,0.214-1.095-0.028-1.308-0.538c-0.213-0.51,0.028-1.095,0.538-1.308l10.509-4.379c0.641-0.269,1.372-0.198,1.951,0.189     S48,21.92,48,22.615v12.77c0,0.695-0.346,1.341-0.924,1.728C46.729,37.344,46.327,37.462,45.923,37.462z"/></g></g></g></svg>