<?xml version="1.0" ?><!DOCTYPE svg  PUBLIC '-//W3C//DTD SVG 1.1//EN'  'http://www.w3.org/Graphics/SVG/1.1/DTD/svg11.dtd'><svg enable-background="new 0 0 48 48" height="48px" version="1.1" viewBox="0 0 48 48" width="48px" xml:space="preserve" xmlns="http://www.w3.org/2000/svg" xmlns:xlink="http://www.w3.org/1999/xlink"><g id="Expanded"><g><g><rect height="30" width="2" x="42" y="9"/></g><g><rect height="2" width="30" x="9" y="4"/></g><g><rect height="30" width="2" x="5" y="9"/></g><g><rect height="2" width="30" x="9" y="42"/></g><g><path d="M10,10H0V0h10V10z M2,8h6V2H2V8z"/></g><g><path d="M48,10H38V0h10V10z M40,8h6V2h-6V8z"/></g><g><path d="M10,48H0V38h10V48z M2,46h6v-6H2V46z"/></g><g><path d="M48,48H38V38h10V48z M40,46h6v-6h-6V46z"/></g></g></g></svg>