<?xml version="1.0" ?><!DOCTYPE svg  PUBLIC '-//W3C//DTD SVG 1.1//EN'  'http://www.w3.org/Graphics/SVG/1.1/DTD/svg11.dtd'><svg enable-background="new 0 0 48 48" height="48px" version="1.1" viewBox="0 0 48 48" width="48px" xml:space="preserve" xmlns="http://www.w3.org/2000/svg" xmlns:xlink="http://www.w3.org/1999/xlink"><g id="Expanded"><g><g><path d="M39,48H9c-2.757,0-5-2.243-5-5V5c0-2.757,2.243-5,5-5h30c2.757,0,5,2.243,5,5v38C44,45.757,41.757,48,39,48z M9,2     C7.346,2,6,3.346,6,5v38c0,1.654,1.346,3,3,3h30c1.654,0,3-1.346,3-3V5c0-1.654-1.346-3-3-3H9z"/></g><g><path d="M24.167,41c-1.105,0-2,0.895-2,2s0.895,2,2,2c1.104,0,2-0.895,2-2S25.271,41,24.167,41L24.167,41z"/></g><g><path d="M39,40H9c-0.552,0-1-0.448-1-1V7c0-0.552,0.448-1,1-1h30c0.552,0,1,0.448,1,1v32C40,39.552,39.552,40,39,40z M10,38h28V8     H10V38z"/></g><g><path d="M24.167,3c-0.553,0-1,0.447-1,1s0.447,1,1,1c0.553,0,1-0.447,1-1S24.719,3,24.167,3L24.167,3z"/></g></g></g></svg>