<?xml version="1.0" ?><!DOCTYPE svg  PUBLIC '-//W3C//DTD SVG 1.1//EN'  'http://www.w3.org/Graphics/SVG/1.1/DTD/svg11.dtd'><svg enable-background="new 0 0 48 48" height="48px" version="1.1" viewBox="0 0 48 48" width="48px" xml:space="preserve" xmlns="http://www.w3.org/2000/svg" xmlns:xlink="http://www.w3.org/1999/xlink"><g id="Expanded"><g><g><path d="M41,46c-2.757,0-5-2.243-5-5s2.243-5,5-5s5,2.243,5,5S43.757,46,41,46z M41,38c-1.654,0-3,1.346-3,3s1.346,3,3,3     s3-1.346,3-3S42.654,38,41,38z"/></g><g><path d="M13,46H9c-0.553,0-1-0.447-1-1V11c0-1.654,1.346-3,3-3s3,1.346,3,3v34C14,45.553,13.553,46,13,46z M10,44h2V11     c0-0.552-0.448-1-1-1s-1,0.448-1,1V44z"/></g><g><path d="M27,46c-3.859,0-7-3.141-7-7s3.141-7,7-7s7,3.141,7,7S30.859,46,27,46z M27,34c-2.757,0-5,2.243-5,5s2.243,5,5,5     s5-2.243,5-5S29.757,34,27,34z"/></g><g><path d="M36.001,29c-0.08,0-0.162-0.01-0.243-0.03c-0.536-0.134-0.862-0.677-0.728-1.212l2-8     c0.134-0.537,0.676-0.865,1.212-0.728c0.536,0.134,0.862,0.677,0.728,1.212l-2,8C36.856,28.697,36.449,29,36.001,29z"/></g><g><path d="M27,27c-0.256,0-0.512-0.098-0.707-0.293l-2-2c-0.391-0.391-0.391-1.023,0-1.414s1.023-0.391,1.414,0l2,2     c0.391,0.391,0.391,1.023,0,1.414C27.512,26.902,27.256,27,27,27z"/></g><g><path d="M17,35c-0.256,0-0.512-0.098-0.707-0.293c-0.391-0.391-0.391-1.023,0-1.414l9-9c0.391-0.391,1.023-0.391,1.414,0     s0.391,1.023,0,1.414l-9,9C17.512,34.902,17.256,35,17,35z"/></g><g><path d="M27,34c-0.256,0-0.512-0.098-0.707-0.293c-0.391-0.391-0.391-1.023,0-1.414l5-5C31.48,27.105,31.734,27,32,27h11     c0.553,0,1,0.447,1,1s-0.447,1-1,1H32.414l-4.707,4.707C27.512,33.902,27.256,34,27,34z"/></g><g><path d="M13,46H1c-0.553,0-1-0.447-1-1s0.447-1,1-1h12c0.553,0,1,0.447,1,1S13.553,46,13,46z"/></g><g><path d="M9,36H3c-0.553,0-1-0.447-1-1s0.447-1,1-1h6c0.553,0,1,0.447,1,1S9.553,36,9,36z"/></g><g><rect height="2" width="4.93" x="32.197" y="41"/></g><g><path d="M47,43h-2.127v-2H46v-9.5l-3.6-2.7C42.148,28.611,42,28.314,42,28V17c0-1.654-1.346-3-3-3h-4c-9.374,0-17,7.626-17,17v10     h3.803v2H17c-0.553,0-1-0.447-1-1V31c0-10.477,8.523-19,19-19h4c2.757,0,5,2.243,5,5v10.5l3.6,2.7c0.252,0.188,0.4,0.485,0.4,0.8     v11C48,42.553,47.553,43,47,43z"/></g></g></g></svg>