<?xml version="1.0" ?><!DOCTYPE svg  PUBLIC '-//W3C//DTD SVG 1.1//EN'  'http://www.w3.org/Graphics/SVG/1.1/DTD/svg11.dtd'><svg enable-background="new 0 0 48 48" height="48px" version="1.1" viewBox="0 0 48 48" width="48px" xml:space="preserve" xmlns="http://www.w3.org/2000/svg" xmlns:xlink="http://www.w3.org/1999/xlink"><g id="Expanded"><g><g><path d="M24,38c-7.168,0-13-5.832-13-13V13c0-7.168,5.832-13,13-13s13,5.832,13,13v12C37,32.168,31.168,38,24,38z M24,2     c-6.065,0-11,4.935-11,11v12c0,6.065,4.935,11,11,11s11-4.935,11-11V13C35,6.935,30.065,2,24,2z"/></g><g><path d="M24,42c-9.532,0-17-7.467-17-17v-4c0-0.552,0.447-1,1-1s1,0.448,1,1v4c0,8.411,6.589,15,15,15s15-6.589,15-15v-4     c0-0.552,0.447-1,1-1s1,0.448,1,1v4C41,34.533,33.532,42,24,42z"/></g><g><rect height="7" width="2" x="23" y="41"/></g><g><path d="M24,8c-0.553,0-1-0.448-1-1V1c0-0.552,0.447-1,1-1s1,0.448,1,1v6C25,7.552,24.553,8,24,8z"/></g><g><path d="M28,8c-0.553,0-1-0.448-1-1V1.683c0-0.552,0.447-1,1-1s1,0.448,1,1V7C29,7.552,28.553,8,28,8z"/></g><g><path d="M20,8c-0.553,0-1-0.448-1-1V1.683c0-0.552,0.447-1,1-1s1,0.448,1,1V7C21,7.552,20.553,8,20,8z"/></g><g><rect height="2" width="32" x="8" y="24"/></g><g><path d="M20,14h-8c-0.553,0-1-0.448-1-1s0.447-1,1-1h8c0.553,0,1,0.448,1,1S20.553,14,20,14z"/></g><g><path d="M20,18h-8c-0.553,0-1-0.448-1-1s0.447-1,1-1h8c0.553,0,1,0.448,1,1S20.553,18,20,18z"/></g><g><path d="M36,14h-8c-0.553,0-1-0.448-1-1s0.447-1,1-1h8c0.553,0,1,0.448,1,1S36.553,14,36,14z"/></g><g><path d="M36,18h-8c-0.553,0-1-0.448-1-1s0.447-1,1-1h8c0.553,0,1,0.448,1,1S36.553,18,36,18z"/></g><g><path d="M20,22h-8c-0.553,0-1-0.448-1-1s0.447-1,1-1h8c0.553,0,1,0.448,1,1S20.553,22,20,22z"/></g><g><path d="M36,22h-8c-0.553,0-1-0.448-1-1s0.447-1,1-1h8c0.553,0,1,0.448,1,1S36.553,22,36,22z"/></g></g></g></svg>