<?xml version="1.0" ?><!DOCTYPE svg  PUBLIC '-//W3C//DTD SVG 1.1//EN'  'http://www.w3.org/Graphics/SVG/1.1/DTD/svg11.dtd'><svg enable-background="new 0 0 48 48" height="48px" version="1.1" viewBox="0 0 48 48" width="48px" xml:space="preserve" xmlns="http://www.w3.org/2000/svg" xmlns:xlink="http://www.w3.org/1999/xlink"><g id="Expanded"><g><g><path d="M40,26H8V6h32V26z M10,24h28V8H10V24z"/></g><g><path d="M33.281,40H14.719l1.5-6h15.562L33.281,40z M17.281,38h13.438l-0.5-2H17.781L17.281,38z"/></g><g><path d="M44,48H4c-2.206,0-4-1.794-4-4l0.038-1.275L4,28.86V6c0-2.206,1.794-4,4-4h32c2.206,0,4,1.794,4,4v21.869L48,43v1     C48,46.206,46.206,48,44,48z M2,43.14V44c0,1.103,0.897,2,2,2h40c1.103,0,2-0.897,2-2v-0.869L42,28V6c0-1.103-0.897-2-2-2H8     C6.897,4,6,4.897,6,6L5.962,29.275L2,43.14z"/></g><g><rect height="2" width="38" x="5" y="28"/></g><g><rect height="2" width="46" x="1" y="42"/></g></g></g></svg>