<?xml version="1.0" ?><!DOCTYPE svg  PUBLIC '-//W3C//DTD SVG 1.1//EN'  'http://www.w3.org/Graphics/SVG/1.1/DTD/svg11.dtd'><svg enable-background="new 0 0 48 48" height="48px" version="1.1" viewBox="0 0 48 48" width="48px" xml:space="preserve" xmlns="http://www.w3.org/2000/svg" xmlns:xlink="http://www.w3.org/1999/xlink"><g id="Expanded"><g><g><path d="M36,16H12c-2.206,0-4-1.794-4-4V6c0-2.206,1.794-4,4-4h24c2.206,0,4,1.794,4,4v6C40,14.206,38.206,16,36,16z M12,4     c-1.103,0-2,0.897-2,2v6c0,1.103,0.897,2,2,2h24c1.103,0,2-0.897,2-2V6c0-1.103-0.897-2-2-2H12z"/></g><g><rect height="2" width="3" x="39" y="8"/></g><g><path d="M26,30h-2v-9c0-0.551-0.449-1-1-1H8c-2.542,0-4-1.458-4-4v-4c0-2.542,1.458-4,4-4h1v2H8c-1.439,0-2,0.561-2,2v4     c0,1.439,0.561,2,2,2h15c1.654,0,3,1.346,3,3V30z"/></g><g><path d="M26,48h-2c-1.654,0-3-1.346-3-3V34c0-3.131,1.495-5,4-5s4,1.869,4,5v11C29,46.654,27.654,48,26,48z M25,31     c-0.495,0-2,0-2,3v11c0,0.551,0.449,1,1,1h2c0.551,0,1-0.449,1-1V34C27,31,25.495,31,25,31z"/></g></g></g></svg>