<?xml version="1.0" ?><!DOCTYPE svg  PUBLIC '-//W3C//DTD SVG 1.1//EN'  'http://www.w3.org/Graphics/SVG/1.1/DTD/svg11.dtd'><svg enable-background="new 0 0 48 48" height="48px" version="1.1" viewBox="0 0 48 48" width="48px" xml:space="preserve" xmlns="http://www.w3.org/2000/svg" xmlns:xlink="http://www.w3.org/1999/xlink"><g id="Expanded"><g><g><path d="M24,35.232c-0.171,0-0.342-0.044-0.496-0.132C22.993,34.809,11,27.855,11,19.197c0-4.936,3.541-7.519,7.038-7.519     c2.215,0,4.606,1.055,5.962,3.348c1.38-2.336,3.835-3.411,6.109-3.411c3.424,0,6.891,2.403,6.891,6.997     c0,8.036-11.936,16.111-12.444,16.451C24.388,35.176,24.194,35.232,24,35.232z M18.038,13.679c-2.427,0-5.038,1.728-5.038,5.519     c0,6.553,8.691,12.421,10.961,13.842C26.208,31.426,35,24.723,35,18.612c0-3.433-2.535-4.997-4.891-4.997     c-2.038,0-4.603,1.196-5.121,4.566c-0.075,0.487-0.495,0.848-0.988,0.848l0,0c-0.493,0-0.913-0.36-0.988-0.848     C22.501,14.858,20.013,13.679,18.038,13.679z"/></g><g><path d="M2.725,46.732c-0.265,0-0.524-0.104-0.717-0.303c-0.297-0.306-0.368-0.765-0.178-1.146l4.82-9.621     C2.354,31.971,0,27.147,0,22C0,11.102,10.767,2.234,24,2.234S48,11.102,48,22S37.233,41.765,24,41.765     c-2.74,0-5.422-0.376-7.979-1.117L3.146,46.639C3.012,46.702,2.867,46.732,2.725,46.732z M24,4.234C11.869,4.234,2,12.204,2,22     c0,4.771,2.317,9.253,6.525,12.619c0.368,0.295,0.48,0.808,0.27,1.229l-3.892,7.767l10.618-4.94     c0.224-0.105,0.478-0.122,0.714-0.05c2.478,0.756,5.09,1.14,7.765,1.14c12.131,0,22-7.969,22-17.765S36.131,4.234,24,4.234z"/></g></g></g></svg>