<?xml version="1.0" ?><!DOCTYPE svg  PUBLIC '-//W3C//DTD SVG 1.1//EN'  'http://www.w3.org/Graphics/SVG/1.1/DTD/svg11.dtd'><svg enable-background="new 0 0 48 48" height="48px" version="1.1" viewBox="0 0 48 48" width="48px" xml:space="preserve" xmlns="http://www.w3.org/2000/svg" xmlns:xlink="http://www.w3.org/1999/xlink"><g id="Expanded"><g><g><path d="M29.781,10H18.219l-2.5-10h16.562L29.781,10z M19.781,8h8.438l1.5-6H18.281L19.781,8z"/></g><g><path d="M25.598,48h-3.195l-0.283-0.526c-0.571-1.061-1.268-2.279-2.023-3.602C16.679,37.896,12,29.71,12,24     c0-7.178,4.822-12,12-12s12,4.822,12,12c0,5.707-4.675,13.886-8.089,19.859c-0.758,1.327-1.457,2.549-2.03,3.615L25.598,48z      M23.595,46h0.811c0.521-0.949,1.124-2.004,1.77-3.134C29.478,37.088,34,29.175,34,24c0-6.075-3.925-10-10-10s-10,3.925-10,10     c0,5.179,4.526,13.098,7.832,18.88C22.476,44.005,23.075,45.056,23.595,46z"/></g><g><path d="M24,30c-2.206,0-4-1.794-4-4s1.794-4,4-4s4,1.794,4,4S26.206,30,24,30z M24,24c-1.103,0-2,0.897-2,2s0.897,2,2,2     s2-0.897,2-2S25.103,24,24,24z"/></g><g><rect height="18" width="2" x="23" y="29"/></g><g><rect height="4.329" width="2" x="20" y="9"/></g><g><rect height="4.329" width="2" x="26" y="9"/></g></g></g></svg>