<?xml version="1.0" ?><!DOCTYPE svg  PUBLIC '-//W3C//DTD SVG 1.1//EN'  'http://www.w3.org/Graphics/SVG/1.1/DTD/svg11.dtd'><svg enable-background="new 0 0 48 48" height="48px" version="1.1" viewBox="0 0 48 48" width="48px" xml:space="preserve" xmlns="http://www.w3.org/2000/svg" xmlns:xlink="http://www.w3.org/1999/xlink"><g id="Expanded"><g><g><path d="M45,48H3c-0.552,0-1-0.448-1-1v-4c0-0.552,0.448-1,1-1s1,0.448,1,1v3h40v-3c0-0.552,0.448-1,1-1s1,0.448,1,1v4     C46,47.552,45.552,48,45,48z"/></g><g><path d="M47,44H1c-0.552,0-1-0.448-1-1v-6c0-2.757,2.243-5,5-5h9.692c6.583-4.582,3.562-11.23,1.127-16.585     C14.803,13.178,14,11.411,14,10c0-6.521,5.029-9.933,9.997-9.933C28.968,0.067,34,3.479,34,10c0,1.404-0.799,3.168-1.812,5.402     c-2.431,5.365-5.45,12.025,1.119,16.598H43c2.757,0,5,2.243,5,5v6C48,43.552,47.552,44,47,44z M2,42h44v-5c0-1.654-1.346-3-3-3     H33c-0.197,0-0.389-0.058-0.553-0.167c-8.306-5.518-4.559-13.786-2.08-19.257C31.207,12.723,32,10.973,32,10     c0-5.451-4.148-7.933-8.003-7.933C20.146,2.067,16,4.549,16,10c0,0.978,0.797,2.731,1.641,4.587     c2.483,5.462,6.235,13.716-2.087,19.246C15.389,33.942,15.197,34,15,34H5c-1.654,0-3,1.346-3,3V42z"/></g></g></g></svg>