<?xml version="1.0" ?><!DOCTYPE svg  PUBLIC '-//W3C//DTD SVG 1.1//EN'  'http://www.w3.org/Graphics/SVG/1.1/DTD/svg11.dtd'><svg enable-background="new 0 0 48 48" height="48px" version="1.1" viewBox="0 0 48 48" width="48px" xml:space="preserve" xmlns="http://www.w3.org/2000/svg" xmlns:xlink="http://www.w3.org/1999/xlink"><g id="Expanded"><g><g><path d="M45,41H3c-1.654,0-3-1.346-3-3v-2c0-0.552,0.447-1,1-1h46c0.553,0,1,0.448,1,1v2C48,39.654,46.654,41,45,41z M2,37v1     c0,0.551,0.448,1,1,1h42c0.552,0,1-0.449,1-1v-1H2z"/></g><g><path d="M41,33H7c-1.654,0-3-1.346-3-3V10c0-1.654,1.346-3,3-3h34c1.654,0,3,1.346,3,3v20C44,31.654,42.654,33,41,33z M7,9     c-0.552,0-1,0.449-1,1v20c0,0.551,0.448,1,1,1h34c0.552,0,1-0.449,1-1V10c0-0.551-0.448-1-1-1H7z"/></g><g><path d="M40,29H8V11h32V29z M10,27h28V13H10V27z"/></g></g></g></svg>