<?xml version="1.0" ?><!DOCTYPE svg  PUBLIC '-//W3C//DTD SVG 1.1//EN'  'http://www.w3.org/Graphics/SVG/1.1/DTD/svg11.dtd'><svg enable-background="new 0 0 48 48" height="48px" version="1.1" viewBox="0 0 48 48" width="48px" xml:space="preserve" xmlns="http://www.w3.org/2000/svg" xmlns:xlink="http://www.w3.org/1999/xlink"><g id="Expanded"><g><g><path d="M35,18H13c-0.553,0-1-0.448-1-1s0.447-1,1-1h22c0.553,0,1,0.448,1,1S35.553,18,35,18z"/></g><g><path d="M21,24h-4c-0.553,0-1-0.448-1-1s0.447-1,1-1h4c0.553,0,1,0.448,1,1S21.553,24,21,24z"/></g><g><path d="M21,28h-4c-0.553,0-1-0.448-1-1s0.447-1,1-1h4c0.553,0,1,0.448,1,1S21.553,28,21,28z"/></g><g><path d="M21,32h-4c-0.553,0-1-0.448-1-1s0.447-1,1-1h4c0.553,0,1,0.448,1,1S21.553,32,21,32z"/></g><g><path d="M26,48h-4c-0.553,0-1-0.448-1-1v-3.657c-3.019-1.362-5-4.621-5-8.343V9c0-4.962,3.589-9,8-9s8,4.038,8,9v26     c0,3.723-1.981,6.981-5,8.343V47C27,47.552,26.553,48,26,48z M23,46h2v-3.336c0-0.428,0.272-0.809,0.678-0.947     C28.223,40.851,30,38.089,30,35V9c0-3.86-2.691-7-6-7s-6,3.14-6,7v26c0,3.089,1.777,5.851,4.322,6.717     C22.728,41.855,23,42.236,23,42.664V46z"/></g></g></g></svg>