<?xml version="1.0" ?><!DOCTYPE svg  PUBLIC '-//W3C//DTD SVG 1.1//EN'  'http://www.w3.org/Graphics/SVG/1.1/DTD/svg11.dtd'><svg enable-background="new 0 0 48 48" height="48px" version="1.1" viewBox="0 0 48 48" width="48px" xml:space="preserve" xmlns="http://www.w3.org/2000/svg" xmlns:xlink="http://www.w3.org/1999/xlink"><g id="Expanded"><g><g><path d="M30.5,10h-13L10,0h28L30.5,10z M18.5,8h11L34,2H14L18.5,8z"/></g><g><path d="M27.519,48h-7.037l-0.299-0.423C19.686,46.872,8,30.223,8,22c0-8.491,9.126-13.658,9.515-13.874L17.741,8h12.518     l0.227,0.126C30.874,8.342,40,13.509,40,22c0,8.223-11.686,24.872-12.183,25.577L27.519,48z M21.523,46h4.953     C28.303,43.344,38,28.912,38,22c0-6.667-6.954-11.201-8.272-12H18.273C16.956,10.802,10,15.352,10,22     C10,28.912,19.697,43.344,21.523,46z"/></g><g><path d="M24,26c-2.757,0-5-2.243-5-5s2.243-5,5-5s5,2.243,5,5S26.757,26,24,26z M24,18c-1.654,0-3,1.346-3,3s1.346,3,3,3     s3-1.346,3-3S25.654,18,24,18z"/></g><g><rect height="22" width="2" x="23" y="26"/></g></g></g></svg>