<?xml version="1.0" ?><!DOCTYPE svg  PUBLIC '-//W3C//DTD SVG 1.1//EN'  'http://www.w3.org/Graphics/SVG/1.1/DTD/svg11.dtd'><svg enable-background="new 0 0 48 48" height="48px" version="1.1" viewBox="0 0 48 48" width="48px" xml:space="preserve" xmlns="http://www.w3.org/2000/svg" xmlns:xlink="http://www.w3.org/1999/xlink"><g id="Expanded"><g><g><path d="M25,30c-0.256,0-0.512-0.098-0.707-0.293l-16-16c-0.286-0.286-0.372-0.716-0.217-1.09C8.23,12.243,8.596,12,9,12h32     c0.404,0,0.77,0.243,0.924,0.617c0.155,0.374,0.069,0.804-0.217,1.09l-16,16C25.512,29.902,25.256,30,25,30z M11.414,14     L25,27.586L38.586,14H11.414z"/></g><g><path d="M25,48c-0.553,0-1-0.447-1-1V29c0-0.553,0.447-1,1-1s1,0.447,1,1v18C26,47.553,25.553,48,25,48z"/></g><g><path d="M33,48H17c-0.553,0-1-0.447-1-1s0.447-1,1-1h16c0.553,0,1,0.447,1,1S33.553,48,33,48z"/></g><g><path d="M14.293,13.707L9.051,8.465C8.106,7.521,6.851,7,5.515,7H0V5h5.515c1.87,0,3.628,0.729,4.95,2.051l5.242,5.242     L14.293,13.707z"/></g><g><path d="M41,18c-1.291,0-2.552-0.354-3.648-1.023l1.043-1.707C39.177,15.747,40.077,16,41,16c2.757,0,5-2.243,5-5s-2.243-5-5-5     s-5,2.243-5,5c0,0.571,0.095,1.131,0.282,1.661l-1.885,0.666C34.134,12.583,34,11.8,34,11c0-3.859,3.141-7,7-7s7,3.141,7,7     S44.859,18,41,18z"/></g></g></g></svg>