<?xml version="1.0" ?><!DOCTYPE svg  PUBLIC '-//W3C//DTD SVG 1.1//EN'  'http://www.w3.org/Graphics/SVG/1.1/DTD/svg11.dtd'><svg enable-background="new 0 0 48 48" height="48px" version="1.1" viewBox="0 0 48 48" width="48px" xml:space="preserve" xmlns="http://www.w3.org/2000/svg" xmlns:xlink="http://www.w3.org/1999/xlink"><g id="Expanded"><g><g><path d="M32.667,22.333c-6.065,0-11-4.935-11-11s4.935-11,11-11s11,4.935,11,11S38.732,22.333,32.667,22.333z M32.667,2.333     c-4.963,0-9,4.037-9,9s4.037,9,9,9s9-4.037,9-9S37.63,2.333,32.667,2.333z"/></g><g><path d="M46.667,9.333c-0.553,0-1,0.448-1,1c0,0.552,0.447,1,1,1c0.553,0,1-0.448,1-1C47.667,9.781,47.219,9.333,46.667,9.333     L46.667,9.333z"/></g><g><path d="M46.667,46.333c-0.553,0-1-0.447-1-1v-32c0-0.553,0.447-1,1-1s1,0.447,1,1v32C47.667,45.886,47.22,46.333,46.667,46.333z     "/></g><g><path d="M9.29,46.714c-4.745,0-8.24-2.963-9.591-8.128c-0.123-0.471,0.11-0.962,0.554-1.163c0.443-0.2,0.966-0.055,1.24,0.347     c0.912,1.338,2.277,2.104,3.748,2.105l0,0c0.929,0,1.78-0.32,2.396-0.901c0.674-0.634,1.029-1.547,1.029-2.641     c0-4.193,3.334-6.456,6.471-6.456c1.331,0,2.553,0.392,3.529,1.117c0.976-0.726,2.197-1.117,3.529-1.117     c3.137,0,6.471,2.263,6.471,6.456c0,2.446,1.721,3.542,3.426,3.542c1.47,0,2.836-0.768,3.748-2.105     c0.274-0.401,0.798-0.547,1.24-0.347c0.443,0.201,0.677,0.692,0.554,1.163c-1.351,5.165-4.847,8.127-9.592,8.128     c-3.624,0-7.312-1.83-9.376-4.515C16.603,44.884,12.915,46.713,9.29,46.714L9.29,46.714z M18.667,39.333     c0.379,0,0.725,0.214,0.895,0.553c1.376,2.752,5.022,4.828,8.481,4.828c1.671,0,4.327-0.492,6.176-3.223     c-0.68,0.251-1.397,0.384-2.126,0.384c-2.696,0-5.426-1.904-5.426-5.542c0-2.926-2.249-4.456-4.471-4.456     c-1.127,0-2.119,0.402-2.795,1.134c-0.377,0.412-1.09,0.411-1.469,0.001c-0.676-0.731-1.668-1.135-2.795-1.135     c-2.222,0-4.471,1.53-4.471,4.456c0,1.658-0.573,3.075-1.658,4.097c-0.988,0.932-2.327,1.445-3.768,1.445c0,0,0,0-0.001,0     c-0.728-0.001-1.445-0.133-2.125-0.384c1.849,2.73,4.504,3.223,6.176,3.223c3.459-0.001,7.105-2.076,8.481-4.828     C17.942,39.547,18.288,39.333,18.667,39.333z"/></g><g><path d="M32.667,18.333c-0.553,0-1-0.447-1-1s0.447-1,1-1c2.757,0,5-2.243,5-5c0-0.553,0.447-1,1-1s1,0.447,1,1     C39.667,15.192,36.526,18.333,32.667,18.333z"/></g></g></g></svg>