<?xml version="1.0" ?><!DOCTYPE svg  PUBLIC '-//W3C//DTD SVG 1.1//EN'  'http://www.w3.org/Graphics/SVG/1.1/DTD/svg11.dtd'><svg enable-background="new 0 0 48 48" height="48px" version="1.1" viewBox="0 0 48 48" width="48px" xml:space="preserve" xmlns="http://www.w3.org/2000/svg" xmlns:xlink="http://www.w3.org/1999/xlink"><g id="Expanded"><g><g><path d="M38,32H10C4.486,32,0,27.514,0,22c0-0.553,0.447-1,1-1s1,0.447,1,1c0,4.411,3.589,8,8,8h28c4.411,0,8-3.589,8-8     c0-0.553,0.447-1,1-1s1,0.447,1,1C48,27.514,43.514,32,38,32z"/></g><g><path d="M39,26H9c-0.553,0-1-0.447-1-1s0.447-1,1-1h30c0.553,0,1,0.447,1,1S39.553,26,39,26z"/></g><g><path d="M40,30.945h-2V16c0-7.72-6.28-14-14-14S10,8.28,10,16v14.945H8V16C8,7.178,15.178,0,24,0s16,7.178,16,16V30.945z"/></g><g><polygon points="27,44 21,44 19,48 29,48 27,44    "/></g></g></g></svg>