<?xml version="1.0" ?><!DOCTYPE svg  PUBLIC '-//W3C//DTD SVG 1.1//EN'  'http://www.w3.org/Graphics/SVG/1.1/DTD/svg11.dtd'><svg enable-background="new 0 0 48 48" height="48px" version="1.1" viewBox="0 0 48 48" width="48px" xml:space="preserve" xmlns="http://www.w3.org/2000/svg" xmlns:xlink="http://www.w3.org/1999/xlink"><g id="Expanded"><g><g><path d="M46.971,30c-0.455,0-0.859-0.311-0.97-0.76C45.963,29.089,45.132,26,41.998,26c-3.316,0-5.089,3.415-5.107,3.45     c-0.17,0.336-0.516,0.549-0.893,0.549c-0.001,0-0.002,0-0.003,0c-0.377-0.002-0.723-0.214-0.892-0.552     C35.087,29.415,33.314,26,29.998,26s-5.089,3.415-5.107,3.45c-0.189,0.371-0.595,0.583-1.004,0.542     c-0.415-0.047-0.758-0.345-0.859-0.75C22.994,29.117,22.117,26,17.998,26c-4.171,0-5.022,3.21-5.03,3.242     C12.856,29.688,12.457,30,11.998,30s-0.859-0.312-0.97-0.758C10.994,29.117,10.117,26,5.998,26c-1.393,0-2.441,0.345-3.117,1.024     c-0.841,0.847-0.857,1.958-0.857,1.969c0.003,0.545-0.43,0.993-0.975,1.007c-0.54,0.004-1-0.411-1.024-0.956     c-0.291-6.599,2.063-12.86,6.63-17.633C11.227,6.632,17.386,4,23.998,4s12.771,2.632,17.343,7.411     c4.567,4.772,6.921,11.035,6.63,17.633c-0.022,0.497-0.406,0.903-0.902,0.951C47.037,29.998,47.004,30,46.971,30z M29.998,24     c2.966,0,4.949,1.844,6,3.186c1.051-1.342,3.034-3.186,6-3.186c1.65,0,2.915,0.592,3.851,1.396     c-0.545-4.715-2.598-9.098-5.952-12.603C35.704,8.413,30.058,6,23.998,6c-6.06,0-11.707,2.413-15.899,6.794     c-3.262,3.409-5.292,7.647-5.903,12.215C3.188,24.339,4.462,24,5.998,24c3.052,0,4.952,1.387,6,2.798     c1.048-1.411,2.948-2.798,6-2.798c3.2,0,5.133,1.524,6.146,3.003C25.228,25.683,27.164,24,29.998,24z"/></g><g><path d="M23.998,6c-0.552,0-1-0.447-1-1V1c0-0.553,0.448-1,1-1s1,0.447,1,1v4C24.998,5.553,24.55,6,23.998,6z"/></g><g><path d="M26.498,47.25c-1.739,0-3.5-1.116-3.5-3.25V29c0-0.553,0.448-1,1-1s1,0.447,1,1v15c0,1.215,1.347,1.25,1.5,1.25     s1.5-0.035,1.5-1.25c0-0.553,0.448-1,1-1s1,0.447,1,1C29.998,46.134,28.237,47.25,26.498,47.25z"/></g></g></g></svg>