<?xml version="1.0" ?><!DOCTYPE svg  PUBLIC '-//W3C//DTD SVG 1.1//EN'  'http://www.w3.org/Graphics/SVG/1.1/DTD/svg11.dtd'><svg enable-background="new 0 0 48 48" height="48px" version="1.1" viewBox="0 0 48 48" width="48px" xml:space="preserve" xmlns="http://www.w3.org/2000/svg" xmlns:xlink="http://www.w3.org/1999/xlink"><g id="Expanded"><g><g><path d="M24.998,48c-0.552,0-1-0.447-1-1v-8c0-0.553,0.448-1,1-1s1,0.447,1,1v8C25.998,47.553,25.55,48,24.998,48z"/></g><g><path d="M31.998,2h-14c-0.552,0-1-0.447-1-1s0.448-1,1-1h14c0.552,0,1,0.447,1,1S32.55,2,31.998,2z"/></g><g><path d="M21.998,18h-4c-0.552,0-1-0.447-1-1s0.448-1,1-1h4c0.552,0,1,0.447,1,1S22.55,18,21.998,18z"/></g><g><path d="M21.998,22h-4c-0.552,0-1-0.447-1-1s0.448-1,1-1h4c0.552,0,1,0.447,1,1S22.55,22,21.998,22z"/></g><g><path d="M21.998,26h-4c-0.552,0-1-0.447-1-1s0.448-1,1-1h4c0.552,0,1,0.447,1,1S22.55,26,21.998,26z"/></g><g><path d="M37.998,12h-26c-0.552,0-1-0.447-1-1s0.448-1,1-1h26c0.552,0,1,0.447,1,1S38.55,12,37.998,12z"/></g><g><rect height="10" width="2" x="20.998" y="1"/></g><g><rect height="10" width="2" x="26.998" y="1"/></g><g><path d="M24.998,40c-4.411,0-8-4.037-8-9V11h2v20c0,3.859,2.691,7,6,7s6-3.141,6-7V11h2v20C32.998,35.963,29.409,40,24.998,40z"/></g></g></g></svg>