<?xml version="1.0" ?><!DOCTYPE svg  PUBLIC '-//W3C//DTD SVG 1.1//EN'  'http://www.w3.org/Graphics/SVG/1.1/DTD/svg11.dtd'><svg enable-background="new 0 0 48 48" height="48px" version="1.1" viewBox="0 0 48 48" width="48px" xml:space="preserve" xmlns="http://www.w3.org/2000/svg" xmlns:xlink="http://www.w3.org/1999/xlink"><g id="Expanded"><g><g><path d="M8.443,40.558c-0.256,0-0.513-0.098-0.708-0.294c-1.167-1.17-1.167-3.073,0-4.243c1.173-1.168,3.077-1.167,4.244,0.001     c0.39,0.39,1.025,0.389,1.415-0.001c0.389-0.389,0.389-1.024-0.001-1.414c-0.567-0.566-0.879-1.32-0.879-2.122     c0-0.802,0.312-1.555,0.88-2.121c1.13-1.131,3.108-1.132,4.241,0.001c0.377,0.377,1.036,0.379,1.414,0     c0.39-0.39,0.39-1.024,0-1.414c-1.168-1.17-1.168-3.073,0-4.243c1.132-1.133,3.109-1.134,4.243-0.001     C23.483,24.896,23.734,25,24,25c0,0,0,0,0,0c0.267,0,0.518-0.104,0.707-0.293c0.189-0.189,0.293-0.439,0.293-0.707     c0-0.267-0.104-0.518-0.293-0.707c-0.567-0.566-0.88-1.32-0.88-2.123c0-0.801,0.313-1.554,0.88-2.119     c0.566-0.566,1.32-0.879,2.121-0.879c0.001,0,0.001,0,0.002,0c0.801,0.001,1.554,0.313,2.12,0.881     c0.39,0.388,1.025,0.388,1.415-0.002s0.39-1.024,0-1.415c-0.566-0.565-0.878-1.319-0.878-2.121c0-0.801,0.312-1.555,0.879-2.121     c1.132-1.133,3.108-1.134,4.242-0.001c0.391,0.392,1.025,0.389,1.415,0.001c0.189-0.189,0.293-0.44,0.293-0.707     c0-0.267-0.104-0.517-0.293-0.705c-1.169-1.172-1.169-3.075-0.001-4.245c1.173-1.168,3.076-1.168,4.244,0.001     c0.39,0.392,0.39,1.024-0.001,1.415c-0.391,0.39-1.024,0.389-1.414-0.001c-0.39-0.391-1.024-0.391-1.416,0     c-0.388,0.389-0.388,1.024,0.002,1.416c0.565,0.564,0.878,1.316,0.879,2.118c0,0.801-0.312,1.555-0.879,2.122     c-1.133,1.133-3.109,1.133-4.242,0c-0.377-0.376-1.036-0.38-1.414,0c-0.189,0.189-0.293,0.44-0.293,0.707     c0,0.268,0.104,0.518,0.292,0.706c1.17,1.172,1.17,3.075,0,4.244c-1.169,1.17-3.073,1.17-4.243,0.002     c-0.19-0.19-0.44-0.295-0.707-0.295c0,0,0,0-0.001,0c-0.267,0-0.518,0.104-0.708,0.294c-0.189,0.188-0.293,0.438-0.293,0.705     c0,0.268,0.104,0.519,0.293,0.707c0.567,0.567,0.879,1.321,0.879,2.122c0,0.802-0.312,1.556-0.879,2.122     C25.555,26.688,24.802,27,24.001,27c0,0,0,0-0.001,0c-0.801,0-1.554-0.312-2.121-0.879c-0.377-0.377-1.037-0.379-1.414,0     c-0.39,0.39-0.39,1.025,0,1.415c0.566,0.566,0.878,1.32,0.878,2.121s-0.312,1.555-0.879,2.121c-1.132,1.133-3.109,1.133-4.242,0     c-0.377-0.377-1.036-0.379-1.414,0c-0.19,0.189-0.294,0.439-0.294,0.706c0,0.268,0.104,0.519,0.293,0.707     c1.169,1.171,1.169,3.074,0.001,4.244c-1.171,1.167-3.074,1.168-4.243,0.001c-0.391-0.393-1.025-0.392-1.417-0.001     c-0.388,0.389-0.388,1.024,0.002,1.416c0.39,0.391,0.389,1.024-0.002,1.414C8.955,40.46,8.699,40.558,8.443,40.558z"/></g><g><path d="M9.858,45.143c-1.87,0-3.628-0.728-4.95-2.05c-2.729-2.729-2.729-7.17,0-9.899L33.192,4.909     c1.322-1.322,3.08-2.05,4.95-2.05s3.628,0.728,4.95,2.05c2.729,2.729,2.729,7.17,0,9.899L14.808,43.093     C13.486,44.415,11.728,45.143,9.858,45.143z M38.142,4.859c-1.336,0-2.591,0.52-3.536,1.464L6.322,34.607     c-1.949,1.949-1.949,5.122,0,7.071c0.944,0.944,2.2,1.464,3.536,1.464s2.591-0.52,3.536-1.464l28.284-28.284     c1.949-1.949,1.949-5.122,0-7.071C40.733,5.379,39.478,4.859,38.142,4.859z"/></g><g><path d="M17.736,47.852c-0.018,0-0.036,0-0.054,0c-2.528-0.017-4.941-1.13-6.977-3.219l1.433-1.396     c1.654,1.698,3.575,2.602,5.557,2.615c1.806,0.025,3.576-0.736,4.891-2.052l21.213-21.213c2.24-2.24,3.433-6.335-0.579-10.5     l1.44-1.387c4.695,4.874,3.661,10.192,0.552,13.301L24,45.214C22.322,46.892,20.042,47.852,17.736,47.852z"/></g><g><path d="M4.061,37.601c-0.26,0-0.519-0.101-0.715-0.301c-4.708-4.813-3.589-10.269-0.559-13.299L24.001,2.787     c3.708-3.707,8.685-3.519,13.312,0.505c0.417,0.362,0.461,0.994,0.099,1.411s-0.994,0.459-1.411,0.099     c-3.802-3.307-7.661-3.525-10.586-0.601L4.201,25.415c-2.436,2.437-3.203,6.623,0.574,10.486     c0.386,0.395,0.379,1.028-0.016,1.414C4.565,37.506,4.313,37.601,4.061,37.601z"/></g></g></g></svg>