<?xml version="1.0" ?><!DOCTYPE svg  PUBLIC '-//W3C//DTD SVG 1.1//EN'  'http://www.w3.org/Graphics/SVG/1.1/DTD/svg11.dtd'><svg enable-background="new 0 0 48 48" height="48px" version="1.1" viewBox="0 0 48 48" width="48px" xml:space="preserve" xmlns="http://www.w3.org/2000/svg" xmlns:xlink="http://www.w3.org/1999/xlink"><g id="Expanded"><g><g><rect height="2" width="14.95" x="16" y="33"/></g><g><rect height="2" width="8.323" x="28.627" y="41"/></g><g><path d="M28,11h-4c-0.552,0-1-0.447-1-1s0.448-1,1-1h4c0.552,0,1,0.447,1,1S28.552,11,28,11z"/></g><g><path d="M37,15H26c-0.552,0-1-0.447-1-1s0.448-1,1-1h11c0.552,0,1,0.447,1,1S37.552,15,37,15z"/></g><g><path d="M36,19H23c-0.552,0-1-0.447-1-1s0.448-1,1-1h13c0.552,0,1,0.447,1,1S36.552,19,36,19z"/></g><g><path d="M37,23H23c-0.552,0-1-0.447-1-1s0.448-1,1-1h14c0.552,0,1,0.447,1,1S37.552,23,37,23z"/></g><g><path d="M35,27H23c-0.552,0-1-0.447-1-1s0.448-1,1-1h12c0.552,0,1,0.447,1,1S35.552,27,35,27z"/></g><g><path d="M36,31H22c-0.552,0-1-0.447-1-1s0.448-1,1-1h14c0.552,0,1,0.447,1,1S36.552,31,36,31z"/></g><g><rect height="2" width="24.95" x="20.05"/></g><g><path d="M24.95,47H0v-2c0.827,0,1.424-0.196,1.825-0.601c0.951-0.957,0.935-3.183,0.921-5.146     c-0.016-2.194-0.03-4.268,1.133-5.438C4.417,33.274,5.13,33,6,33h9.174C17.189,22.034,17.002,4.195,17,4.012     C17.023,2.605,17.69,0,20.05,0v2C19.093,2,19,3.996,19,4.017c0.009,0.747,0.2,19.103-2.02,30.18L16.819,35H6     c-0.428,0-0.605,0.128-0.701,0.225c-0.577,0.581-0.564,2.405-0.553,4.015C4.76,41.223,4.776,43.429,3.861,45H24.95     c0.827,0,1.424-0.196,1.825-0.601c0.951-0.957,0.935-3.183,0.921-5.146c-0.016-2.194-0.03-4.268,1.133-5.438     C29.367,33.274,30.081,33,30.95,33c1.014,0,1.806,0.281,2.356,0.837c0.926,0.936,0.912,2.326,0.897,3.671     c-0.012,1.133-0.024,2.304,0.554,2.888C35.154,40.797,35.892,41,36.95,41c0.108,0,0.438,0,0.889-0.463     c4.051-4.159,4.341-27.766,4.111-36.511C41.973,2.605,42.64,0,45,0c2.61,0,3,5.013,3,8v1h-3.987     c0.017,9.426-0.492,28.57-4.741,32.933C38.582,42.641,37.801,43,36.95,43c-1.634,0-2.817-0.392-3.614-1.198     c-1.165-1.177-1.147-2.844-1.132-4.314c0.01-0.935,0.02-1.9-0.319-2.243C31.685,35.042,31.267,35,30.95,35     c-0.428,0-0.605,0.128-0.701,0.225c-0.577,0.581-0.564,2.405-0.553,4.015c0.016,2.354,0.035,5.021-1.502,6.569     C27.41,46.6,26.318,47,24.95,47z M44.001,7h1.977c-0.103-2.446-0.561-4.708-1.056-5.019C44.043,2,43.95,3.996,43.95,4.017     C43.963,4.499,43.987,5.547,44.001,7z"/></g></g></g></svg>