<?xml version="1.0" ?><!DOCTYPE svg  PUBLIC '-//W3C//DTD SVG 1.1//EN'  'http://www.w3.org/Graphics/SVG/1.1/DTD/svg11.dtd'><svg enable-background="new 0 0 48 48" height="48px" version="1.1" viewBox="0 0 48 48" width="48px" xml:space="preserve" xmlns="http://www.w3.org/2000/svg" xmlns:xlink="http://www.w3.org/1999/xlink"><g id="Expanded"><g><g><path d="M24,48C10.767,48,0,37.233,0,24S10.767,0,24,0s24,10.767,24,24S37.233,48,24,48z M24,2C11.869,2,2,11.869,2,24     s9.869,22,22,22s22-9.869,22-22S36.131,2,24,2z"/></g><g><path d="M24,42c-8.822,0-16-7.178-16-16c0-0.553,0.448-1,1-1s1,0.447,1,1c0,7.72,6.28,14,14,14s14-6.28,14-14     c0-0.553,0.448-1,1-1s1,0.447,1,1C40,34.822,32.822,42,24,42z"/></g><g><path d="M19,21c-0.552,0-1-0.447-1-1c0-1.654-1.346-3-3-3s-3,1.346-3,3c0,0.553-0.448,1-1,1s-1-0.447-1-1c0-2.757,2.243-5,5-5     s5,2.243,5,5C20,20.553,19.552,21,19,21z"/></g><g><path d="M37,21c-0.552,0-1-0.447-1-1c0-1.654-1.346-3-3-3s-3,1.346-3,3c0,0.553-0.448,1-1,1s-1-0.447-1-1c0-2.757,2.243-5,5-5     s5,2.243,5,5C38,20.553,37.552,21,37,21z"/></g></g></g></svg>