<?xml version="1.0" ?><!DOCTYPE svg  PUBLIC '-//W3C//DTD SVG 1.1//EN'  'http://www.w3.org/Graphics/SVG/1.1/DTD/svg11.dtd'><svg enable-background="new 0 0 48 48" height="48px" version="1.1" viewBox="0 0 48 48" width="48px" xml:space="preserve" xmlns="http://www.w3.org/2000/svg" xmlns:xlink="http://www.w3.org/1999/xlink"><g id="Expanded"><g><g><path d="M25,48H7c-2.757,0-5-2.243-5-5V19h2v24c0,1.654,1.346,3,3,3h18c1.654,0,3-1.346,3-3V19h2v24C30,45.757,27.757,48,25,48z"/></g><g><path d="M27,22H5c-1.654,0-3-1.346-3-3s1.346-3,3-3h22c1.654,0,3,1.346,3,3S28.654,22,27,22z M5,18c-0.551,0-1,0.449-1,1     s0.449,1,1,1h22c0.551,0,1-0.449,1-1s-0.449-1-1-1H5z"/></g><g><path d="M16,44c-5.514,0-10-4.486-10-10s4.486-10,10-10s10,4.486,10,10S21.514,44,16,44z M16,26c-4.411,0-8,3.589-8,8     s3.589,8,8,8s8-3.589,8-8S20.411,26,16,26z"/></g><g><path d="M16,40c-3.309,0-6-2.691-6-6s2.691-6,6-6s6,2.691,6,6S19.309,40,16,40z M16,30c-2.206,0-4,1.794-4,4s1.794,4,4,4     s4-1.794,4-4S18.206,30,16,30z"/></g><g><path d="M23,8h-8V2h8V8z M17,6h4V4h-4V6z"/></g><g><path d="M12,10c-2.757,0-5-2.243-5-5s2.243-5,5-5s5,2.243,5,5S14.757,10,12,10z M12,2c-1.654,0-3,1.346-3,3s1.346,3,3,3     s3-1.346,3-3S13.654,2,12,2z"/></g><g><path d="M40,48c-3.309,0-6-2.691-6-6V26c0-1.103-0.897-2-2-2h-3v-2h3c2.206,0,4,1.794,4,4v16c0,2.206,1.794,4,4,4s4-1.794,4-4V11     c0-2.757-2.243-5-5-5H22V4h17c3.86,0,7,3.14,7,7v31C46,45.309,43.309,48,40,48z"/></g><g><path d="M12,4c-0.553,0-1,0.447-1,1s0.447,1,1,1c0.553,0,1-0.447,1-1S12.553,4,12,4L12,4z"/></g></g></g></svg>