<?xml version="1.0" ?><!DOCTYPE svg  PUBLIC '-//W3C//DTD SVG 1.1//EN'  'http://www.w3.org/Graphics/SVG/1.1/DTD/svg11.dtd'><svg enable-background="new 0 0 48 48" height="48px" version="1.1" viewBox="0 0 48 48" width="48px" xml:space="preserve" xmlns="http://www.w3.org/2000/svg" xmlns:xlink="http://www.w3.org/1999/xlink"><g id="Expanded"><g><g><path d="M31.818,11H14.182c-1.518,0-2.935-0.677-3.889-1.857l-6.07-7.514c-0.242-0.3-0.291-0.712-0.125-1.06S4.615,0,5,0h36     c0.385,0,0.736,0.222,0.902,0.569s0.118,0.76-0.125,1.06l-6.07,7.514C34.753,10.323,33.336,11,31.818,11z M7.093,2l4.755,5.885     C12.421,8.594,13.271,9,14.182,9h17.637c0.91,0,1.761-0.406,2.333-1.115L38.907,2H7.093z"/></g><g><path d="M41.02,48c-0.007-0.001-0.014-0.001-0.02,0H5c-0.375,0-0.718-0.209-0.889-0.542c-0.171-0.334-0.142-0.734,0.075-1.039     l5-7C9.374,39.156,9.677,39,10,39h26c0.323,0,0.626,0.156,0.814,0.419l4.902,6.863c0.188,0.182,0.304,0.437,0.304,0.718     C42.02,47.553,41.572,48,41.02,48z M6.943,46h32.113l-3.571-5H10.515L6.943,46z"/></g><g><rect height="32" width="2" x="22" y="9"/></g><g><rect height="48" width="2" x="4"/></g><g><rect height="48" width="2" x="40"/></g></g></g></svg>