<?xml version="1.0" ?><!DOCTYPE svg  PUBLIC '-//W3C//DTD SVG 1.1//EN'  'http://www.w3.org/Graphics/SVG/1.1/DTD/svg11.dtd'><svg enable-background="new 0 0 48 48" height="48px" version="1.1" viewBox="0 0 48 48" width="48px" xml:space="preserve" xmlns="http://www.w3.org/2000/svg" xmlns:xlink="http://www.w3.org/1999/xlink"><g id="Expanded"><g><g><path d="M1,47.027v-1.003c0-0.304,0.043-7.483,3.791-11.195c1.129-1.118,2.623-1.734,4.207-1.734s3.074,0.617,4.194,1.737     c1.125,1.125,1.743,2.62,1.742,4.211c-0.001,1.586-0.621,3.076-1.743,4.194c-3.733,3.719-10.885,3.786-11.188,3.787L1,47.027z      M8.998,35.095c-1.054,0-2.048,0.41-2.8,1.155c-2.388,2.365-2.993,6.718-3.146,8.719c1.998-0.159,6.344-0.774,8.728-3.148     c0.743-0.74,1.153-1.727,1.154-2.779c0.001-1.056-0.41-2.048-1.156-2.795C11.036,35.504,10.048,35.095,8.998,35.095z"/></g><g><path d="M2,47.023c-0.256,0-0.512-0.098-0.707-0.293c-0.391-0.391-0.391-1.023,0-1.414L6.95,39.66     c0.391-0.391,1.023-0.391,1.414,0s0.391,1.023,0,1.414L2.707,46.73C2.512,46.926,2.256,47.023,2,47.023z"/></g><g><path d="M15.911,38.77L15.911,38.77c-0.265,0-0.52-0.105-0.707-0.293l-5.655-5.658c-0.391-0.391-0.391-1.023,0-1.414L40.66,0.293     C40.848,0.105,41.102,0,41.367,0l0,0c0.265,0,0.52,0.105,0.707,0.293L47.73,5.95c0.391,0.391,0.391,1.023,0,1.414L16.618,38.477     C16.43,38.664,16.176,38.77,15.911,38.77z M11.669,32.112l4.241,4.243L45.609,6.657l-4.242-4.243L11.669,32.112z"/></g><g><path d="M22.982,14.728c-0.256,0-0.512-0.098-0.707-0.293c-0.391-0.391-0.391-1.023,0-1.414L33.588,1.707     c1.949-1.95,5.123-1.95,7.072,0c0.391,0.391,0.391,1.023,0,1.414s-1.023,0.391-1.414,0c-1.171-1.171-3.075-1.17-4.244,0     L23.689,14.435C23.494,14.63,23.238,14.728,22.982,14.728z"/></g><g><path d="M35.71,18.971c-0.256,0-0.512-0.098-0.707-0.293l-5.656-5.657c-0.391-0.391-0.391-1.023,0-1.414s1.023-0.391,1.414,0     l5.656,5.657c0.391,0.391,0.391,1.023,0,1.414C36.222,18.873,35.966,18.971,35.71,18.971z"/></g></g></g></svg>