<?xml version="1.0" ?><!DOCTYPE svg  PUBLIC '-//W3C//DTD SVG 1.1//EN'  'http://www.w3.org/Graphics/SVG/1.1/DTD/svg11.dtd'><svg enable-background="new 0 0 48 48" height="48px" version="1.1" viewBox="0 0 48 48" width="48px" xml:space="preserve" xmlns="http://www.w3.org/2000/svg" xmlns:xlink="http://www.w3.org/1999/xlink"><g id="Expanded"><g><g><path d="M12.313,42.344L12.313,42.344c-0.265,0-0.52-0.105-0.707-0.293L5.95,36.394c-0.391-0.391-0.391-1.023,0-1.414     L40.623,0.307c0.188-0.188,0.442-0.293,0.707-0.293l0,0c0.265,0,0.52,0.105,0.707,0.293l5.656,5.657     c0.391,0.391,0.391,1.023,0,1.414L13.021,42.051C12.833,42.238,12.579,42.344,12.313,42.344z M8.071,35.687l4.242,4.243     L45.572,6.671L41.33,2.428L8.071,35.687z"/></g><g><path d="M22.944,14.743c-0.256,0-0.512-0.098-0.707-0.293c-0.391-0.391-0.391-1.023,0-1.414L33.55,1.722     c1.949-1.95,5.122-1.95,7.071,0c0.391,0.391,0.391,1.023,0,1.414s-1.023,0.391-1.414,0c-1.17-1.17-3.073-1.17-4.243,0     L23.651,14.45C23.456,14.645,23.2,14.743,22.944,14.743z"/></g><g><path d="M1,48c-0.256,0-0.512-0.098-0.707-0.293c-0.391-0.391-0.391-1.023,0-1.414l4.242-4.242c0.391-0.391,1.023-0.391,1.414,0     s0.391,1.023,0,1.414l-4.242,4.242C1.512,47.902,1.256,48,1,48z"/></g><g><path d="M35.671,18.986c-0.256,0-0.512-0.098-0.707-0.293l-5.656-5.657c-0.391-0.391-0.391-1.024,0-1.414     c0.391-0.391,1.023-0.391,1.414,0l5.656,5.657c0.391,0.391,0.391,1.024,0,1.414C36.183,18.888,35.927,18.986,35.671,18.986z"/></g><g><path d="M6.657,45.172c-0.256,0-0.512-0.098-0.707-0.293l-2.829-2.828c-0.188-0.188-0.293-0.442-0.293-0.707     s0.105-0.52,0.293-0.707l4.243-4.243c0.391-0.391,1.023-0.391,1.414,0s0.391,1.023,0,1.414l-3.536,3.536l1.415,1.414l3.535-3.535     c0.391-0.391,1.023-0.391,1.414,0s0.391,1.023,0,1.414l-4.242,4.242C7.169,45.074,6.913,45.172,6.657,45.172z"/></g></g></g></svg>