<?xml version="1.0" ?><!DOCTYPE svg  PUBLIC '-//W3C//DTD SVG 1.1//EN'  'http://www.w3.org/Graphics/SVG/1.1/DTD/svg11.dtd'><svg enable-background="new 0 0 48 48" height="48px" version="1.1" viewBox="0 0 48 48" width="48px" xml:space="preserve" xmlns="http://www.w3.org/2000/svg" xmlns:xlink="http://www.w3.org/1999/xlink"><g id="Expanded"><g><g><path d="M32,28c-0.129,0-0.259-0.024-0.383-0.076C31.243,27.77,31,27.404,31,27v-7h-3c-0.553,0-1-0.447-1-1s0.447-1,1-1h4     c0.553,0,1,0.447,1,1v5.586l6.293-6.293C39.48,18.105,39.734,18,40,18h6V2H18v7c0,0.553-0.447,1-1,1s-1-0.447-1-1V1     c0-0.553,0.447-1,1-1h30c0.553,0,1,0.447,1,1v18c0,0.553-0.447,1-1,1h-6.586l-7.707,7.707C32.516,27.898,32.26,28,32,28z"/></g><g><path d="M32,48H0v-3.978c0-2.418,1.53-4.589,3.809-5.402l7.244-2.588v-3.59h2v5L4.48,40.503C2.997,41.033,2,42.447,2,44.022V46     h28v-1.978c0-1.575-0.996-2.989-2.479-3.52l-8.573-3.061V32.17h2v3.862l7.246,2.588C30.471,39.434,32,41.604,32,44.022V48z"/></g><g><path d="M15.803,34.579c-4.904,0-8.895-4.699-8.895-10.475c0-5.774,3.99-10.473,8.895-10.473s8.895,4.698,8.895,10.473     C24.697,29.88,20.707,34.579,15.803,34.579z M15.803,15.632c-3.802,0-6.895,3.801-6.895,8.473c0,4.673,3.093,8.475,6.895,8.475     s6.895-3.802,6.895-8.475C22.697,19.433,19.604,15.632,15.803,15.632z"/></g><g><path d="M21.575,24.453c-1.878,0-3.37-0.797-4.638-2.475c-1.414,1.363-3.742,2.337-5.871,2.337c-1.294,0-2.413-0.27-3.521-0.85     l0.928-1.771c0.821,0.43,1.621,0.621,2.593,0.621c1.962,0,4.373-1.196,5.059-2.51l0.847-1.622l0.908,1.589     c1.311,2.296,2.626,2.986,4.839,2.562c0.221-0.042,0.423-0.044,0.619-0.044c0.067,0,0.135,0.004,0.208-0.005l0.242,1.984     c-0.163,0.021-0.314,0.022-0.469,0.021c-0.07-0.003-0.146-0.007-0.225,0.008C22.562,24.4,22.056,24.453,21.575,24.453z"/></g><g><path d="M37,10c-0.553,0-1,0.448-1,1c0,0.552,0.447,1,1,1c0.553,0,1-0.448,1-1C38,10.448,37.553,10,37,10L37,10z"/></g><g><path d="M32,10c-0.553,0-1,0.448-1,1c0,0.552,0.447,1,1,1c0.553,0,1-0.448,1-1C33,10.448,32.553,10,32,10L32,10z"/></g><g><path d="M27,10c-0.553,0-1,0.448-1,1c0,0.552,0.447,1,1,1c0.553,0,1-0.448,1-1C28,10.448,27.553,10,27,10L27,10z"/></g></g></g></svg>