<?xml version="1.0" ?><!DOCTYPE svg  PUBLIC '-//W3C//DTD SVG 1.1//EN'  'http://www.w3.org/Graphics/SVG/1.1/DTD/svg11.dtd'><svg enable-background="new 0 0 48 48" height="48px" version="1.1" viewBox="0 0 48 48" width="48px" xml:space="preserve" xmlns="http://www.w3.org/2000/svg" xmlns:xlink="http://www.w3.org/1999/xlink"><g id="Expanded"><g><g><path d="M30.563,48H2.257l0.082-1.075c0.459-6.071,3.888-9.696,10.197-10.785V35h-2v-6h12v6h-2v1.14     c6.223,1.075,9.48,4.61,9.947,10.785L30.563,48z M4.453,46h23.918c-0.69-4.807-3.496-7.292-8.966-8.008l-0.87-0.114V33h2v-2h-8v2     h2v4.877l-0.87,0.114C8.115,38.718,5.162,41.273,4.453,46z"/></g><g><path d="M20,27.015c-0.256,0-0.512-0.098-0.707-0.293c-0.391-0.391-0.391-1.023,0-1.414l24.349-24.35     c0.391-0.391,1.023-0.391,1.414,0s0.391,1.023,0,1.414l-24.349,24.35C20.512,26.917,20.256,27.015,20,27.015z"/></g><g><path d="M23.136,23.878c-0.256,0-0.512-0.098-0.707-0.293c-3.172-3.172-0.687-10.626,5.657-16.97     c3.027-3.027,6.427-5.291,9.573-6.375c0.305-0.106,0.644-0.057,0.906,0.131c0.263,0.188,0.419,0.491,0.419,0.814l0,6.814     c0,0.552-0.448,1-1,1s-1-0.448-1-1l0-5.339c-2.474,1.119-5.136,3.02-7.485,5.369c-5.834,5.833-7.664,12.135-5.657,14.142     c0.391,0.391,0.391,1.024,0,1.414C23.647,23.781,23.392,23.878,23.136,23.878z"/></g><g><path d="M40.45,16H31c-0.552,0-1-0.448-1-1s0.448-1,1-1h9.45c0.552,0,1,0.448,1,1S41.002,16,40.45,16z"/></g><g><path d="M26.093,24.942c-1.493,0-2.75-0.442-3.664-1.356c-0.391-0.39-0.391-1.023,0-1.414s1.023-0.391,1.414,0     c1.625,1.624,5.47,0.693,9.646-2.171H27c-0.552,0-1-0.448-1-1s0.448-1,1-1h9.45c0.42,0,0.796,0.263,0.94,0.658     c0.144,0.395,0.025,0.838-0.297,1.108C33.072,23.138,29.105,24.942,26.093,24.942z"/></g><g><path d="M43.45,12H35c-0.552,0-1-0.448-1-1s0.448-1,1-1h7.862c1.847-3.435,2.145-6.263,0.78-7.628     c-0.391-0.391-0.391-1.024,0-1.414c0.391-0.391,1.023-0.391,1.414,0c2.139,2.139,1.87,5.98-0.738,10.539     C44.14,11.808,43.809,12,43.45,12z"/></g></g></g></svg>