<?xml version="1.0" ?><!DOCTYPE svg  PUBLIC '-//W3C//DTD SVG 1.1//EN'  'http://www.w3.org/Graphics/SVG/1.1/DTD/svg11.dtd'><svg enable-background="new 0 0 48 48" height="48px" version="1.1" viewBox="0 0 48 48" width="48px" xml:space="preserve" xmlns="http://www.w3.org/2000/svg" xmlns:xlink="http://www.w3.org/1999/xlink"><g id="Expanded"><g><g><path d="M44,32H4v-8c0-2.206,1.794-4,4-4h10.046c0.333,0,0.642-0.164,0.828-0.439s0.224-0.624,0.101-0.932     C18.328,17.013,18,15.311,18,13.569V6c0-3.309,2.691-6,6-6s6,2.691,6,6v7.569c0,1.741-0.328,3.443-0.975,5.059     c-0.123,0.309-0.085,0.657,0.101,0.932S29.622,20,29.954,20H40c2.206,0,4,1.794,4,4V32z M6,30h36v-6c0-1.103-0.897-2-2-2H29.954     c-0.997,0-1.926-0.493-2.484-1.318s-0.671-1.871-0.301-2.796C27.72,16.507,28,15.055,28,13.569V6c0-2.206-1.794-4-4-4     s-4,1.794-4,4v7.569c0,1.485,0.28,2.938,0.831,4.316c0.371,0.925,0.258,1.971-0.301,2.796S19.043,22,18.046,22H8     c-1.103,0-2,0.897-2,2V30z"/></g><g><path d="M41,48H16c-0.265,0-0.52-0.105-0.707-0.293S15,47.265,15,47v-3.764l-2.105,4.211C12.725,47.786,12.378,48,12,48H7     c-0.552,0-1-0.448-1-1V31c0-0.552,0.448-1,1-1h34c0.552,0,1,0.448,1,1v16C42,47.552,41.552,48,41,48z M17,46h23V32H8v14h3.381     l3.724-7.447c0.208-0.415,0.674-0.631,1.125-0.526C16.681,38.133,17,38.536,17,39L17,46z"/></g><g><path d="M37,48c-0.552,0-1-0.448-1-1V37c0-0.552,0.448-1,1-1s1,0.448,1,1v10C38,47.552,37.552,48,37,48z"/></g><g><path d="M33,48c-0.552,0-1-0.448-1-1v-8c0-0.552,0.448-1,1-1s1,0.448,1,1v8C34,47.552,33.552,48,33,48z"/></g><g><path d="M29,48c-0.552,0-1-0.448-1-1v-5c0-0.552,0.448-1,1-1s1,0.448,1,1v5C30,47.552,29.552,48,29,48z"/></g><g><circle cx="24" cy="6" r="2"/></g></g></g></svg>