<?xml version="1.0" ?><!DOCTYPE svg  PUBLIC '-//W3C//DTD SVG 1.1//EN'  'http://www.w3.org/Graphics/SVG/1.1/DTD/svg11.dtd'><svg enable-background="new 0 0 48 48" height="48px" version="1.1" viewBox="0 0 48 48" width="48px" xml:space="preserve" xmlns="http://www.w3.org/2000/svg" xmlns:xlink="http://www.w3.org/1999/xlink"><g id="Expanded"><g><g><path d="M35,48H13c-2.757,0-5-2.243-5-5V5c0-2.757,2.243-5,5-5h22c2.757,0,5,2.243,5,5v38C40,45.757,37.757,48,35,48z M13,2     c-1.654,0-3,1.346-3,3v38c0,1.654,1.346,3,3,3h22c1.654,0,3-1.346,3-3V5c0-1.654-1.346-3-3-3H13z"/></g><g><path d="M39,10H9c-0.553,0-1-0.448-1-1s0.447-1,1-1h30c0.553,0,1,0.448,1,1S39.553,10,39,10z"/></g><g><path d="M39,40H9c-0.553,0-1-0.448-1-1s0.447-1,1-1h30c0.553,0,1,0.448,1,1S39.553,40,39,40z"/></g><g><path d="M24,41c-1.104,0-2,0.896-2,2s0.896,2,2,2s2-0.896,2-2S25.104,41,24,41L24,41z"/></g><g><path d="M29,6H19c-0.553,0-1-0.448-1-1s0.447-1,1-1h10c0.553,0,1,0.448,1,1S29.553,6,29,6z"/></g></g></g></svg>