<?xml version="1.0" ?><!DOCTYPE svg  PUBLIC '-//W3C//DTD SVG 1.1//EN'  'http://www.w3.org/Graphics/SVG/1.1/DTD/svg11.dtd'><svg enable-background="new 0 0 48 48" height="48px" version="1.1" viewBox="0 0 48 48" width="48px" xml:space="preserve" xmlns="http://www.w3.org/2000/svg" xmlns:xlink="http://www.w3.org/1999/xlink"><g id="Expanded"><g><g><path d="M47.175,44h-46c-0.553,0-1-0.447-1-1V29c0-1.654,1.346-3,3-3h2c0.553,0,1,0.447,1,1c0,0.667,2.594,2,6,2     c4.093,0,6-1.193,6-2c0-0.325,0.158-0.63,0.424-0.817c0.267-0.187,0.606-0.231,0.912-0.124l26.673,9.526     c1.191,0.425,1.991,1.56,1.991,2.824V43C48.175,43.553,47.728,44,47.175,44z M2.175,42h44v-3.591c0-0.421-0.267-0.8-0.663-0.941     l-25.674-9.169C18.906,29.975,16.102,31,12.175,31c-3.298,0-6.819-1.123-7.759-3H3.175c-0.552,0-1,0.448-1,1V42z"/></g><g><rect height="2" width="46" x="1.175" y="38"/></g><g><path d="M22.175,32c-0.255,0-0.511-0.097-0.706-0.291c-0.391-0.391-0.393-1.023-0.003-1.415l2.151-2.16     c0.392-0.389,1.023-0.393,1.415-0.003c0.391,0.391,0.393,1.023,0.003,1.415l-2.151,2.16C22.688,31.901,22.432,32,22.175,32z"/></g><g><path d="M26.175,33c-0.256,0-0.512-0.098-0.707-0.293c-0.391-0.391-0.391-1.023,0-1.414l1.842-1.842     c0.391-0.391,1.023-0.391,1.414,0s0.391,1.023,0,1.414l-1.842,1.842C26.687,32.902,26.431,33,26.175,33z"/></g><g><path d="M25.175,39h-2v-1c0-2.206,1.794-4,4-4h6c0.477,0,1-0.673,1-1.285h2c0,1.554-1.232,3.285-3,3.285h-6c-1.103,0-2,0.897-2,2     V39z"/></g><g><path d="M7.175,40c-0.553,0-1-0.447-1-1c0-2.757-2.243-5-5-5c-0.553,0-1-0.447-1-1s0.447-1,1-1c3.859,0,7,3.141,7,7     C8.175,39.553,7.728,40,7.175,40z"/></g><g><path d="M29.175,22c-0.113,0-0.227-0.02-0.336-0.059L2.166,12.415c-1.191-0.425-1.991-1.56-1.991-2.824V5c0-0.553,0.447-1,1-1h46     c0.553,0,1,0.447,1,1v14c0,1.654-1.346,3-3,3h-2c-0.553,0-1-0.447-1-1c0-0.667-2.594-2-6-2c-4.093,0-6,1.193-6,2     c0,0.325-0.158,0.63-0.424,0.817C29.58,21.938,29.378,22,29.175,22z M43.934,20h1.241c0.552,0,1-0.448,1-1V6h-44v3.591     c0,0.421,0.267,0.8,0.663,0.941l25.674,9.169C29.443,18.025,32.248,17,36.175,17C39.473,17,42.994,18.123,43.934,20z"/></g><g><rect height="2" width="46" x="1.175" y="8"/></g><g><path d="M24.023,20.16c-0.255,0-0.511-0.097-0.706-0.291c-0.391-0.391-0.393-1.023-0.003-1.415l2.151-2.16     c0.392-0.389,1.023-0.393,1.415-0.003c0.391,0.391,0.393,1.023,0.003,1.415l-2.151,2.16C24.536,20.062,24.28,20.16,24.023,20.16z     "/></g><g><path d="M20.333,18.842c-0.256,0-0.512-0.098-0.707-0.293c-0.391-0.391-0.391-1.023,0-1.414l1.842-1.842     c0.391-0.391,1.023-0.391,1.414,0s0.391,1.023,0,1.414l-1.842,1.842C20.845,18.744,20.589,18.842,20.333,18.842z"/></g><g><path d="M14.175,15.285h-2c0-1.554,1.232-3.285,3-3.285h6c1.103,0,2-0.897,2-2V9h2v1c0,2.206-1.794,4-4,4h-6     C14.698,14,14.175,14.673,14.175,15.285z"/></g><g><path d="M47.175,16c-3.859,0-7-3.141-7-7c0-0.553,0.447-1,1-1s1,0.447,1,1c0,2.757,2.243,5,5,5c0.553,0,1,0.447,1,1     S47.728,16,47.175,16z"/></g></g></g></svg>