<?xml version="1.0" ?><!DOCTYPE svg  PUBLIC '-//W3C//DTD SVG 1.1//EN'  'http://www.w3.org/Graphics/SVG/1.1/DTD/svg11.dtd'><svg enable-background="new 0 0 48 48" height="48px" version="1.1" viewBox="0 0 48 48" width="48px" xml:space="preserve" xmlns="http://www.w3.org/2000/svg" xmlns:xlink="http://www.w3.org/1999/xlink"><g id="Expanded"><g><g><path d="M24.37,47.104c0,0-0.001,0-0.001,0C17.987,47.103,4,41.536,4,25C4,11.767,13.42,1,24.998,1C37.167,1,46,11.093,46,25     c0,4.752-3.013,13.84-7.737,13.84c-1.542,0-2.988-0.971-4.299-2.886c-1-1.461-2.072-2.299-2.94-2.299     c-0.443,0-0.856,0.229-1.228,0.682c-1.053,1.284-1.82,4.445-0.816,9.466c0.143,0.715-0.019,1.383-0.469,1.932     C27.585,46.866,25.748,47.104,24.37,47.104z M24.998,3C14.522,3,6,12.869,6,25c0,15.04,12.614,20.103,18.368,20.104     c0,0,0.001,0,0.001,0c1.531,0,2.355-0.342,2.596-0.636c0.048-0.058,0.084-0.119,0.054-0.271     c-0.969-4.846-0.509-9.005,1.23-11.127c0.759-0.925,1.718-1.414,2.774-1.414c1.104,0,2.797,0.55,4.59,3.169     c0.629,0.919,1.6,2.016,2.649,2.016C40.978,36.84,44,29.783,44,25C44,12.252,36.008,3,24.998,3z"/></g><g><path d="M18.998,41c-2.757,0-5-2.243-5-5s2.243-5,5-5s5,2.243,5,5S21.755,41,18.998,41z M18.998,33c-1.654,0-3,1.346-3,3     s1.346,3,3,3s3-1.346,3-3S20.652,33,18.998,33z"/></g><g><path d="M13.006,27c0,0-0.003,0-0.004,0c-2.206,0-3.999-1.794-3.999-4c-0.001-1.067,0.415-2.072,1.17-2.828S11.934,19,13.003,19     c1.07,0,2.074,0.417,2.829,1.174c0.754,0.756,1.169,1.76,1.168,2.827c0.003,1.064-0.411,2.068-1.166,2.825     C15.08,26.583,14.075,27,13.006,27z M13.006,21c-0.538,0-1.04,0.208-1.418,0.586c-0.378,0.377-0.585,0.879-0.585,1.413     C11.003,24.103,11.899,25,13,25l0.006,1v-1c0.534,0,1.036-0.208,1.413-0.586c0.376-0.377,0.583-0.878,0.582-1.411     c0-0.536-0.207-1.038-0.584-1.416C14.039,21.208,13.538,21,13.006,21z"/></g><g><path d="M18.003,18c0,0-0.003,0-0.004,0C15.793,18,14,16.206,14,14c-0.001-1.067,0.415-2.072,1.17-2.828S16.931,10,18,10     c1.07,0,2.074,0.417,2.829,1.174c0.754,0.756,1.169,1.76,1.168,2.827c0.003,1.064-0.411,2.068-1.166,2.825     C20.077,17.583,19.072,18,18.003,18z M18.003,12c-0.538,0-1.04,0.208-1.418,0.586C16.207,12.964,16,13.466,16,13.999     C16,15.103,16.896,16,17.997,16l0.006,1v-1c0.534,0,1.036-0.208,1.413-0.586c0.376-0.377,0.583-0.878,0.582-1.411     c0-0.536-0.207-1.038-0.584-1.416C19.036,12.208,18.535,12,18.003,12z"/></g><g><path d="M27.006,14c0,0-0.003,0-0.004,0c-2.206,0-3.999-1.794-3.999-4c-0.001-1.067,0.415-2.072,1.17-2.828S25.934,6,27.003,6     c1.07,0,2.074,0.417,2.829,1.174c0.754,0.756,1.169,1.76,1.168,2.827c0.003,1.064-0.411,2.068-1.166,2.825     C29.08,13.583,28.075,14,27.006,14z M27.006,8c-0.538,0-1.04,0.208-1.418,0.586c-0.378,0.377-0.585,0.879-0.585,1.413     C25.003,11.103,25.899,12,27,12l0.006,1v-1c0.534,0,1.036-0.208,1.413-0.586c0.376-0.377,0.583-0.878,0.582-1.411     c0-0.536-0.207-1.038-0.584-1.416C28.039,8.208,27.538,8,27.006,8z"/></g><g><path d="M36.003,21c0,0-0.003,0-0.004,0C33.793,21,32,19.206,32,17c-0.001-1.067,0.415-2.072,1.17-2.828S34.931,13,36,13     c1.07,0,2.074,0.417,2.829,1.174c0.754,0.756,1.169,1.76,1.168,2.827c0.003,1.064-0.411,2.068-1.166,2.825     C38.077,20.583,37.072,21,36.003,21z M36.003,15c-0.538,0-1.04,0.208-1.418,0.586C34.207,15.964,34,16.466,34,16.999     C34,18.103,34.896,19,35.997,19l0.006,1v-1c0.534,0,1.036-0.208,1.413-0.586c0.376-0.377,0.583-0.878,0.582-1.411     c0-0.536-0.207-1.038-0.584-1.416C37.036,15.208,36.535,15,36.003,15z"/></g></g></g></svg>