<?xml version="1.0" ?><!DOCTYPE svg  PUBLIC '-//W3C//DTD SVG 1.1//EN'  'http://www.w3.org/Graphics/SVG/1.1/DTD/svg11.dtd'><svg enable-background="new 0 0 48 48" height="48px" version="1.1" viewBox="0 0 48 48" width="48px" xml:space="preserve" xmlns="http://www.w3.org/2000/svg" xmlns:xlink="http://www.w3.org/1999/xlink"><g id="Expanded"><g><g><path d="M48,48H0V0h48V48z M2,46h44V2H2V46z"/></g><g><rect height="2" width="46" x="1" y="34"/></g><g><path d="M19,18h-6c-2.206,0-4-1.794-4-4c0-2.323,2.022-4.202,4.352-3.984C14.175,7.637,16.407,6,19,6c3.309,0,6,2.691,6,6     S22.309,18,19,18z M13,12c-1.103,0-2,0.897-2,2s0.897,2,2,2h6c2.206,0,4-1.794,4-4s-1.794-4-4-4     c-1.966,0-3.621,1.416-3.933,3.367l-0.196,1.222l-1.153-0.448C13.477,12.047,13.236,12,13,12z"/></g><g><path d="M43.105,35.447l-7.073-14.146C35.631,20.499,34.824,20,33.927,20c-0.834,0-1.613,0.448-2.034,1.168l-6.029,10.336     c-0.174,0.298-0.489,0.484-0.833,0.495c-0.34,0.028-0.67-0.157-0.862-0.443C24.131,31.5,20.398,26,16,26     c-3.546,0-7.029,6.765-8.071,9.372l-1.857-0.743C6.507,33.541,10.482,24,16,24c4.015,0,7.336,3.328,8.89,5.204l5.275-9.044     c0.777-1.333,2.219-2.16,3.761-2.16c1.66,0,3.152,0.922,3.895,2.407l7.073,14.146L43.105,35.447z"/></g></g></g></svg>