<?xml version="1.0" ?><!DOCTYPE svg  PUBLIC '-//W3C//DTD SVG 1.1//EN'  'http://www.w3.org/Graphics/SVG/1.1/DTD/svg11.dtd'><svg enable-background="new 0 0 48 48" height="48px" version="1.1" viewBox="0 0 48 48" width="48px" xml:space="preserve" xmlns="http://www.w3.org/2000/svg" xmlns:xlink="http://www.w3.org/1999/xlink"><g id="Expanded"><g><g><path d="M23,48H7c-2.757,0-5-2.243-5-5V5c0-0.553,0.448-1,1-1s1,0.447,1,1v38c0,1.654,1.346,3,3,3h16c0.552,0,1,0.447,1,1     S23.552,48,23,48z"/></g><g><path d="M41,22.999c-0.552,0-1-0.447-1-1V10H7c-2.757,0-5-2.243-5-5s2.243-5,5-5h34c0.552,0,1,0.447,1,1s-0.448,1-1,1H7     C5.346,2,4,3.346,4,5s1.346,3,3,3h35v13.999C42,22.552,41.552,22.999,41,22.999z"/></g><g><path d="M34,48c-6.617,0-12-5.383-12-12s5.383-12,12-12s12,5.383,12,12S40.617,48,34,48z M34,26c-5.514,0-10,4.486-10,10     s4.486,10,10,10s10-4.486,10-10S39.514,26,34,26z"/></g><g><path d="M34,42c-0.552,0-1-0.447-1-1V31c0-0.553,0.448-1,1-1s1,0.447,1,1v10C35,41.553,34.552,42,34,42z"/></g><g><path d="M34,42.414l-4.707-4.707c-0.391-0.391-0.391-1.023,0-1.414s1.023-0.391,1.414,0L34,39.586l3.293-3.293     c0.391-0.391,1.023-0.391,1.414,0s0.391,1.023,0,1.414L34,42.414z"/></g><g><rect height="2" width="33" x="7" y="4"/></g></g></g></svg>