<?xml version="1.0" ?><!DOCTYPE svg  PUBLIC '-//W3C//DTD SVG 1.1//EN'  'http://www.w3.org/Graphics/SVG/1.1/DTD/svg11.dtd'><svg enable-background="new 0 0 48 48" height="48px" version="1.1" viewBox="0 0 48 48" width="48px" xml:space="preserve" xmlns="http://www.w3.org/2000/svg" xmlns:xlink="http://www.w3.org/1999/xlink"><g id="Expanded"><g><g><path d="M33,46c-0.553,0-1-0.447-1-1V34h1c4.963,0,9-4.037,9-9v-5c0-9.925-8.075-18-18-18S6,10.075,6,20v5c0,4.963,4.037,9,9,9h1     v11c0,0.553-0.447,1-1,1s-1-0.447-1-1v-9.045C8.401,35.448,4,30.729,4,25v-5C4,8.972,12.972,0,24,0s20,8.972,20,20v5     c0,5.729-4.401,10.448-10,10.955V45C34,45.553,33.553,46,33,46z"/></g><g><path d="M21,46c-0.553,0-1-0.447-1-1V35c0-0.553,0.447-1,1-1s1,0.447,1,1v10C22,45.553,21.553,46,21,46z"/></g><g><path d="M27,46c-0.553,0-1-0.447-1-1V35c0-0.553,0.447-1,1-1s1,0.447,1,1v10C28,45.553,27.553,46,27,46z"/></g><g><path d="M33,32c-3.859,0-7-3.141-7-7s3.141-7,7-7s7,3.141,7,7S36.859,32,33,32z M33,20c-2.757,0-5,2.243-5,5s2.243,5,5,5     s5-2.243,5-5S35.757,20,33,20z"/></g><g><path d="M15,32c-3.859,0-7-3.141-7-7s3.141-7,7-7s7,3.141,7,7S18.859,32,15,32z M15,20c-2.757,0-5,2.243-5,5s2.243,5,5,5     s5-2.243,5-5S17.757,20,15,20z"/></g><g><path d="M5.236,18c-0.553,0-1-0.447-1-1s0.447-1,1-1C7.955,16,12,14.136,12,9c0-0.553,0.447-1,1-1s1,0.447,1,1     C14,14.908,9.592,18,5.236,18z"/></g><g><path d="M42.764,18C38.408,18,34,14.908,34,9c0-0.553,0.447-1,1-1s1,0.447,1,1c0,5.136,4.045,7,6.764,7c0.553,0,1,0.447,1,1     S43.316,18,42.764,18z"/></g><g><path d="M25.02,32c-0.005,0.001-0.012,0.001-0.02,0h-2c-0.347,0-0.668-0.18-0.851-0.475s-0.199-0.663-0.044-0.973l1-2     c0.34-0.678,1.449-0.678,1.789,0l0.92,1.84c0.129,0.168,0.205,0.379,0.205,0.607C26.02,31.553,25.572,32,25.02,32z"/></g></g></g></svg>