<?xml version="1.0" ?><!DOCTYPE svg  PUBLIC '-//W3C//DTD SVG 1.1//EN'  'http://www.w3.org/Graphics/SVG/1.1/DTD/svg11.dtd'><svg enable-background="new 0 0 48 48" height="48px" version="1.1" viewBox="0 0 48 48" width="48px" xml:space="preserve" xmlns="http://www.w3.org/2000/svg" xmlns:xlink="http://www.w3.org/1999/xlink"><g id="Expanded"><g><g><path d="M23,48c-0.091,0-0.182-0.013-0.27-0.037C5.228,43.06,3.098,32.299,3.016,31.844C3.005,31.785,3,31.726,3,31.666V2.043     c0-0.404,0.243-0.769,0.617-0.924c0.374-0.154,0.804-0.069,1.09,0.217c2.229,2.228,5.183,3.455,8.317,3.455     c3.574,0,6.92-1.61,9.18-4.418c0.381-0.473,1.211-0.473,1.592,0c2.26,2.808,5.605,4.418,9.179,4.418     c3.135,0,6.089-1.228,8.318-3.455c0.286-0.286,0.716-0.372,1.09-0.217S43,1.639,43,2.043v29.623c0,0.06-0.005,0.119-0.016,0.178     c-0.082,0.455-2.213,11.216-19.715,16.119C23.182,47.987,23.091,48,23,48z M5,31.561c0.101,0.43,0.719,2.729,2.954,5.457     c2.272,2.771,6.721,6.557,15.046,8.943c8.324-2.387,12.773-6.173,15.045-8.943c2.232-2.722,2.853-5.019,2.955-5.458V4.204     c-2.327,1.681-5.109,2.587-8.025,2.587c-3.797,0-7.372-1.551-9.975-4.292c-2.603,2.741-6.179,4.292-9.976,4.292     c-2.915,0-5.697-0.906-8.024-2.587V31.561z"/></g><g><path d="M27,35h-8v-8h-8v-8h8v-8h8v8h8v8h-8V35z M21,33h4v-8h8v-4h-8v-8h-4v8h-8v4h8V33z"/></g></g></g></svg>