<?xml version="1.0" ?><!DOCTYPE svg  PUBLIC '-//W3C//DTD SVG 1.1//EN'  'http://www.w3.org/Graphics/SVG/1.1/DTD/svg11.dtd'><svg enable-background="new 0 0 48 48" height="48px" version="1.1" viewBox="0 0 48 48" width="48px" xml:space="preserve" xmlns="http://www.w3.org/2000/svg" xmlns:xlink="http://www.w3.org/1999/xlink"><g id="Expanded"><g><g><path d="M33,48h-6c-0.553,0-1-0.448-1-1v-3H5c-0.553,0-1-0.448-1-1V22H1c-0.553,0-1-0.448-1-1v-6c0-0.552,0.447-1,1-1h3v-3     c0-0.552,0.447-1,1-1h6c0.553,0,1,0.448,1,1v3h21c0.553,0,1,0.448,1,1v21h3c0.553,0,1,0.448,1,1v6c0,0.552-0.447,1-1,1h-3v3     C34,47.552,33.553,48,33,48z M28,46h4v-3c0-0.552,0.447-1,1-1h3v-4h-3c-0.553,0-1-0.448-1-1V16H11c-0.553,0-1-0.448-1-1v-3H6v3     c0,0.552-0.447,1-1,1H2v4h3c0.553,0,1,0.448,1,1v21h21c0.553,0,1,0.448,1,1V46z M27,38H11c-0.553,0-1-0.448-1-1V21     c0-0.552,0.447-1,1-1h16c0.553,0,1,0.448,1,1v16C28,37.552,27.553,38,27,38z M12,36h14V22H12V36z"/></g><g><path d="M11,38c-0.256,0-0.512-0.098-0.707-0.293c-0.391-0.391-0.391-1.023,0-1.414l16-16c0.391-0.391,1.023-0.391,1.414,0     s0.391,1.023,0,1.414l-16,16C11.512,37.902,11.256,38,11,38z"/></g><g><path d="M33,16c-0.256,0-0.512-0.098-0.707-0.293c-0.391-0.391-0.391-1.023,0-1.414l10-10c0.391-0.391,1.023-0.391,1.414,0     s0.391,1.023,0,1.414l-10,10C33.512,15.902,33.256,16,33,16z"/></g><g><path d="M14,16H4c-0.553,0-1-0.448-1-1s0.447-1,1-1h10c0.553,0,1,0.448,1,1S14.553,16,14,16z"/></g><g><path d="M11,22H5c-0.553,0-1-0.448-1-1s0.447-1,1-1h6c0.553,0,1,0.448,1,1S11.553,22,11,22z"/></g><g><path d="M33,38h-6c-0.553,0-1-0.448-1-1s0.447-1,1-1h6c0.553,0,1,0.448,1,1S33.553,38,33,38z"/></g><g><path d="M33,44h-6c-0.553,0-1-0.448-1-1s0.447-1,1-1h6c0.553,0,1,0.448,1,1S33.553,44,33,44z"/></g></g></g></svg>