<?xml version="1.0" ?><!DOCTYPE svg  PUBLIC '-//W3C//DTD SVG 1.1//EN'  'http://www.w3.org/Graphics/SVG/1.1/DTD/svg11.dtd'><svg enable-background="new 0 0 48 48" height="48px" version="1.1" viewBox="0 0 48 48" width="48px" xml:space="preserve" xmlns="http://www.w3.org/2000/svg" xmlns:xlink="http://www.w3.org/1999/xlink"><g id="Expanded"><g><g><path d="M42,2c2.206,0,4,1.794,4,4v36c0,2.206-1.794,4-4,4H6c-2.206,0-4-1.794-4-4V6c0-2.206,1.794-4,4-4H42 M42,0H6     C2.7,0,0,2.7,0,6v36c0,3.3,2.7,6,6,6h36c3.3,0,6-2.7,6-6V6C48,2.7,45.3,0,42,0L42,0z"/></g><g><path d="M24,8c8.822,0,16,7.178,16,16s-7.178,16-16,16S8,32.822,8,24S15.178,8,24,8 M24,6C14.059,6,6,14.059,6,24     c0,9.941,8.059,18,18,18c9.94,0,18-8.059,18-18C42,14.059,33.94,6,24,6L24,6z"/></g><g><path d="M30,25h-7V14c0-0.553,0.448-1,1-1s1,0.447,1,1v9h5c0.552,0,1,0.447,1,1S30.552,25,30,25z"/></g></g></g></svg>