<?xml version="1.0" ?><!DOCTYPE svg  PUBLIC '-//W3C//DTD SVG 1.1//EN'  'http://www.w3.org/Graphics/SVG/1.1/DTD/svg11.dtd'><svg enable-background="new 0 0 48 48" height="48px" version="1.1" viewBox="0 0 48 48" width="48px" xml:space="preserve" xmlns="http://www.w3.org/2000/svg" xmlns:xlink="http://www.w3.org/1999/xlink"><g id="Expanded"><g><g><path d="M23,48c-8.669,0-18-1.721-18-5.5v-27h2v27c0,1.188,5.647,3.5,16,3.5s16-2.312,16-3.5v-27h2v27C41,46.279,31.669,48,23,48     z"/></g><g><path d="M23,21c-8.669,0-18-1.721-18-5.5S14.331,10,23,10s18,1.721,18,5.5S31.669,21,23,21z M23,12c-10.353,0-16,2.312-16,3.5     S12.647,19,23,19s16-2.312,16-3.5S33.353,12,23,12z"/></g><g><path d="M7,27H6c-2.757,0-5-2.243-5-5s2.243-5,5-5h1V27z M5,19.171C3.836,19.584,3,20.696,3,22s0.836,2.416,2,2.829V19.171z"/></g><g><path d="M40,27h-1V17h1c2.757,0,5,2.243,5,5S42.757,27,40,27z M41,19.171v5.657c1.164-0.413,2-1.525,2-2.829     S42.164,19.584,41,19.171z"/></g><g><path d="M30.001,38c-1.317,0-2.605-0.535-3.534-1.468c-0.943-0.948-1.458-2.205-1.453-3.541c0.008-1.919-0.001-4.052-0.008-5.519     L25.003,27H23v2c0,2.206-1.795,4-4.001,4c-2.204,0-3.999-1.793-4-3.998l0-2.594c-1.921-0.157-3.74-0.499-5.31-1.002     c-0.526-0.168-0.815-0.731-0.647-1.257c0.168-0.525,0.73-0.816,1.257-0.647c1.663,0.532,3.65,0.868,5.748,0.97l0.951,0.046     l0.001,4.482c0,1.102,0.898,1.999,2,1.999C20.103,31,21,30.103,21,29v-4h6l0.005,2.463c0.007,1.471,0.017,3.611,0.008,5.536     c-0.003,0.8,0.306,1.554,0.871,2.122C28.44,35.68,29.212,36,30.001,36c1.654,0,3-1.346,3-3l0-8.869l0.78-0.176     c0.695-0.157,1.343-0.329,1.926-0.513c0.528-0.165,1.088,0.127,1.254,0.654c0.166,0.527-0.127,1.088-0.654,1.254     c-0.41,0.129-0.848,0.252-1.307,0.369L35,33C35,35.757,32.758,38,30.001,38z"/></g><g><path d="M41,18h-2v-3c0-7.168-5.832-13-13-13h-6C12.832,2,7,7.832,7,15v3H5v-3C5,6.729,11.729,0,20,0h6c8.271,0,15,6.729,15,15     V18z"/></g></g></g></svg>