<?xml version="1.0" ?><!DOCTYPE svg  PUBLIC '-//W3C//DTD SVG 1.1//EN'  'http://www.w3.org/Graphics/SVG/1.1/DTD/svg11.dtd'><svg enable-background="new 0 0 48 48" height="48px" version="1.1" viewBox="0 0 48 48" width="48px" xml:space="preserve" xmlns="http://www.w3.org/2000/svg" xmlns:xlink="http://www.w3.org/1999/xlink"><g id="Expanded"><g><g><path d="M10,48c-2.206,0-4-1.794-4-4s1.794-4,4-4s4,1.794,4,4S12.206,48,10,48z M10,42c-1.103,0-2,0.897-2,2s0.897,2,2,2     s2-0.897,2-2S11.103,42,10,42z"/></g><g><path d="M32,48c-2.206,0-4-1.794-4-4s1.794-4,4-4s4,1.794,4,4S34.206,48,32,48z M32,42c-1.103,0-2,0.897-2,2s0.897,2,2,2     s2-0.897,2-2S33.103,42,32,42z"/></g><g><path d="M21,16c-0.553,0-1-0.447-1-1V1c0-0.553,0.447-1,1-1s1,0.447,1,1v14C22,15.553,21.553,16,21,16z"/></g><g><path d="M21,16c-0.256,0-0.512-0.098-0.707-0.293l-6-6c-0.391-0.391-0.391-1.023,0-1.414s1.023-0.391,1.414,0L21,13.586     l5.293-5.293c0.391-0.391,1.023-0.391,1.414,0s0.391,1.023,0,1.414l-6,6C21.512,15.902,21.256,16,21,16z"/></g><g><path d="M32,42H10c-0.553,0-1-0.447-1-1s0.447-1,1-1h21.208l7.818-33.229C39.133,6.319,39.536,6,40,6h7c0.553,0,1,0.447,1,1     s-0.447,1-1,1h-6.208l-7.818,33.229C32.867,41.681,32.464,42,32,42z"/></g><g><path d="M33,38H7c-0.431,0-0.812-0.275-0.948-0.684l-6-18c-0.103-0.305-0.051-0.641,0.137-0.901C0.377,18.154,0.679,18,1,18h36     c0.553,0,1,0.447,1,1s-0.447,1-1,1H2.388l5.333,16H33c0.553,0,1,0.447,1,1S33.553,38,33,38z"/></g></g></g></svg>