<?xml version="1.0" ?><!DOCTYPE svg  PUBLIC '-//W3C//DTD SVG 1.1//EN'  'http://www.w3.org/Graphics/SVG/1.1/DTD/svg11.dtd'><svg enable-background="new 0 0 48 48" height="48px" version="1.1" viewBox="0 0 48 48" width="48px" xml:space="preserve" xmlns="http://www.w3.org/2000/svg" xmlns:xlink="http://www.w3.org/1999/xlink"><g id="Expanded"><g><g><path d="M33,36H15c-0.553,0-1-0.447-1-1V10c0-5.514,4.486-10,10-10s10,4.486,10,10v25C34,35.553,33.553,36,33,36z M16,34h16V10     c0-4.411-3.589-8-8-8s-8,3.589-8,8V34z"/></g><g><path d="M24,48c-0.553,0-1-0.447-1-1V35c0-0.553,0.447-1,1-1s1,0.447,1,1v12C25,47.553,24.553,48,24,48z"/></g><g><path d="M29,25c-1.654,0-3-1.346-3-3v-8c0-0.553,0.447-1,1-1s1,0.447,1,1v8c0,0.552,0.448,1,1,1c0.553,0,1,0.447,1,1     S29.553,25,29,25z"/></g><g><path d="M21,17c-1.654,0-3-1.346-3-3v-4c0-0.553,0.447-1,1-1s1,0.447,1,1v4c0,0.552,0.448,1,1,1s1-0.448,1-1c0-0.553,0.447-1,1-1     s1,0.447,1,1C24,15.654,22.654,17,21,17z"/></g><g><path d="M27,15c-0.553,0-1-0.447-1-1c0-0.552-0.448-1-1-1s-1,0.448-1,1c0,0.553-0.447,1-1,1s-1-0.447-1-1c0-1.654,1.346-3,3-3     s3,1.346,3,3C28,14.553,27.553,15,27,15z"/></g></g></g></svg>