<?xml version="1.0" ?><!DOCTYPE svg  PUBLIC '-//W3C//DTD SVG 1.1//EN'  'http://www.w3.org/Graphics/SVG/1.1/DTD/svg11.dtd'><svg enable-background="new 0 0 48 48" height="48px" version="1.1" viewBox="0 0 48 48" width="48px" xml:space="preserve" xmlns="http://www.w3.org/2000/svg" xmlns:xlink="http://www.w3.org/1999/xlink"><g id="Expanded"><g><g><g><path d="M35.979,36H12.021c-0.314,0-0.61-0.147-0.799-0.398C9.114,32.801,8,29.48,8,26c0-8.822,7.178-16,16-16s16,7.178,16,16      c0,3.48-1.114,6.801-3.222,9.602C36.59,35.853,36.294,36,35.979,36z M12.53,34H35.47c1.657-2.365,2.53-5.12,2.53-8      c0-7.72-6.28-14-14-14s-14,6.28-14,14C10,28.88,10.873,31.635,12.53,34z"/></g><g><path d="M9,27c-2.241,0-6-1.039-6-8c0-2.461-1.443-3-2-3c-0.553,0-1-0.447-1-1s0.447-1,1-1c1.547,0,4,1.357,4,5c0,6,3.011,6,4,6      c0.553,0,1,0.447,1,1S9.553,27,9,27z"/></g><g><path d="M41,31c-0.977,0-1.927-0.201-2.823-0.597c-0.505-0.224-0.733-0.814-0.511-1.319c0.225-0.505,0.812-0.732,1.319-0.511      C39.625,28.856,40.304,29,41,29c2.757,0,5-2.243,5-5s-2.243-5-5-5c-1.097,0-2.142,0.354-3.021,1.025      c-0.441,0.335-1.067,0.249-1.402-0.189c-0.334-0.439-0.249-1.067,0.189-1.402C37.997,17.496,39.462,17,41,17      c3.859,0,7,3.141,7,7S44.859,31,41,31z"/></g><g><path d="M36,18H12c-0.553,0-1-0.447-1-1s0.447-1,1-1h24c0.553,0,1,0.447,1,1S36.553,18,36,18z"/></g><g><path d="M24,12c-2.206,0-4-1.794-4-4s1.794-4,4-4s4,1.794,4,4S26.206,12,24,12z M24,6c-1.103,0-2,0.897-2,2s0.897,2,2,2      s2-0.897,2-2S25.103,6,24,6z"/></g></g><g><path d="M43,40H5c-0.553,0-1-0.447-1-1s0.447-1,1-1h38c0.553,0,1,0.447,1,1S43.553,40,43,40z"/></g><g><path d="M10,43c-0.553,0-1-0.447-1-1v-3c0-0.553,0.447-1,1-1s1,0.447,1,1v3C11,42.553,10.553,43,10,43z"/></g><g><path d="M40,43c-0.553,0-1-0.447-1-1v-3c0-0.553,0.447-1,1-1s1,0.447,1,1v3C41,42.553,40.553,43,40,43z"/></g></g></g></svg>