<?xml version="1.0" ?><!DOCTYPE svg  PUBLIC '-//W3C//DTD SVG 1.1//EN'  'http://www.w3.org/Graphics/SVG/1.1/DTD/svg11.dtd'><svg enable-background="new 0 0 48 48" height="48px" version="1.1" viewBox="0 0 48 48" width="48px" xml:space="preserve" xmlns="http://www.w3.org/2000/svg" xmlns:xlink="http://www.w3.org/1999/xlink"><g id="Expanded"><g><g><path d="M38.001,28c-0.051,0-0.102-0.004-0.153-0.012c-0.546-0.084-0.92-0.595-0.836-1.141l1.873-12.176     c0.488-3.176-0.431-6.396-2.523-8.834C34.269,3.398,31.226,2,28.013,2h-8.025c-3.213,0-6.256,1.398-8.349,3.838     c-2.092,2.438-3.012,5.658-2.523,8.834l1.873,12.176c0.084,0.546-0.291,1.057-0.836,1.141c-0.545,0.078-1.057-0.29-1.14-0.836     L7.139,14.977c-0.578-3.754,0.51-7.56,2.982-10.441C12.593,1.653,16.189,0,19.987,0h8.025c3.798,0,7.394,1.653,9.866,4.535     c2.473,2.882,3.56,6.688,2.982,10.441l-1.873,12.176C38.912,27.646,38.486,28,38.001,28z"/></g><g><path d="M12,48c-0.552,0-1-0.447-1-1v-2c0-0.553,0.448-1,1-1s1,0.447,1,1v2C13,47.553,12.552,48,12,48z"/></g><g><path d="M36,48c-0.552,0-1-0.447-1-1v-2c0-0.553,0.448-1,1-1s1,0.447,1,1v2C37,47.553,36.552,48,36,48z"/></g><g><path d="M37,46H11c-3.86,0-7-3.141-7-7v-4c0-0.606-0.362-1.149-0.921-1.383C1.208,32.838,0,31.025,0,29c0-2.757,2.243-5,5-5     c4.411,0,8,3.589,8,8v1.461C14.771,32.828,18.197,32,24,32s9.229,0.828,11,1.461V32c0-4.411,3.589-8,8-8c2.757,0,5,2.243,5,5     c0,2.026-1.208,3.839-3.079,4.617C44.362,33.851,44,34.394,44,35v4C44,42.859,40.86,46,37,46z M5,26c-1.654,0-3,1.346-3,3     c0,1.216,0.725,2.304,1.848,2.771C5.155,32.315,6,33.583,6,35v4c0,2.757,2.243,5,5,5h26c2.757,0,5-2.243,5-5v-4     c0-1.416,0.845-2.684,2.152-3.229C45.275,31.304,46,30.216,46,29c0-1.654-1.346-3-3-3c-3.309,0-6,2.691-6,6v4.868l-1.555-1.036     C35.426,35.819,32.463,34,24,34s-11.426,1.819-11.455,1.838l-1.536,0.977L11,32C11,28.691,8.309,26,5,26z"/></g><g><path d="M29,21c-0.256,0-0.512-0.098-0.707-0.293l-2-2c-0.391-0.391-0.391-1.023,0-1.414l2-2c0.391-0.391,1.023-0.391,1.414,0     s0.391,1.023,0,1.414L28.414,18l1.293,1.293c0.391,0.391,0.391,1.023,0,1.414C29.512,20.902,29.256,21,29,21z"/></g><g><path d="M19,21c-0.256,0-0.512-0.098-0.707-0.293c-0.391-0.391-0.391-1.023,0-1.414L19.586,18l-1.293-1.293     c-0.391-0.391-0.391-1.023,0-1.414s1.023-0.391,1.414,0l2,2c0.391,0.391,0.391,1.023,0,1.414l-2,2C19.512,20.902,19.256,21,19,21     z"/></g><g><path d="M24,22c-2.206,0-4-1.794-4-4s1.794-4,4-4s4,1.794,4,4S26.206,22,24,22z M24,16c-1.103,0-2,0.897-2,2s0.897,2,2,2     s2-0.897,2-2S25.103,16,24,16z"/></g></g></g></svg>