<?xml version="1.0" ?><!DOCTYPE svg  PUBLIC '-//W3C//DTD SVG 1.1//EN'  'http://www.w3.org/Graphics/SVG/1.1/DTD/svg11.dtd'><svg enable-background="new 0 0 48 48" height="48px" version="1.1" viewBox="0 0 48 48" width="48px" xml:space="preserve" xmlns="http://www.w3.org/2000/svg" xmlns:xlink="http://www.w3.org/1999/xlink"><g id="Expanded"><g><g><path d="M7.667,12h-3c-2.206,0-4-1.794-4-4V6c0-3.309,2.691-6,6-6h5c0.553,0,1,0.447,1,1v6C12.667,9.757,10.424,12,7.667,12z      M6.667,2c-2.206,0-4,1.794-4,4v2c0,1.103,0.897,2,2,2h3c1.654,0,3-1.346,3-3V2H6.667z"/></g><g><path d="M18.667,12h-3c-2.757,0-5-2.243-5-5V1c0-0.553,0.447-1,1-1h5c3.309,0,6,2.691,6,6v2C22.667,10.206,20.873,12,18.667,12z      M12.667,2v5c0,1.654,1.346,3,3,3h3c1.103,0,2-0.897,2-2V6c0-2.206-1.794-4-4-4H12.667z"/></g><g><path d="M0.667,8c-0.553,0-1-0.447-1-1V5c0-0.553,0.447-1,1-1s1,0.447,1,1v2C1.667,7.553,1.22,8,0.667,8z"/></g><g><path d="M22.667,8c-0.553,0-1-0.447-1-1V5c0-0.553,0.447-1,1-1s1,0.447,1,1v2C23.667,7.553,23.22,8,22.667,8z"/></g><g><path d="M11.667,22c-2.206,0-4-1.794-4-4s1.794-4,4-4s4,1.794,4,4S13.873,22,11.667,22z M11.667,16c-1.103,0-2,0.897-2,2     s0.897,2,2,2s2-0.897,2-2S12.77,16,11.667,16z"/></g><g><path d="M43.667,48h-6c-2.206,0-4-1.794-4-4V25c0-3.859,3.141-7,7-7s7,3.141,7,7v19C47.667,46.206,45.873,48,43.667,48z      M40.667,20c-2.757,0-5,2.243-5,5v19c0,1.103,0.897,2,2,2h6c1.103,0,2-0.897,2-2V25C45.667,22.243,43.424,20,40.667,20z"/></g><g><path d="M42.667,20h-4c-0.553,0-1-0.447-1-1v-4c0-0.553,0.447-1,1-1h4c0.553,0,1,0.447,1,1v4C43.667,19.553,43.22,20,42.667,20z      M39.667,18h2v-2h-2V18z"/></g><g><path d="M46.667,44h-12c-0.553,0-1-0.447-1-1s0.447-1,1-1h12c0.553,0,1,0.447,1,1S47.22,44,46.667,44z"/></g><g><path d="M46.667,26h-12c-0.553,0-1-0.447-1-1s0.447-1,1-1h12c0.553,0,1,0.447,1,1S47.22,26,46.667,26z"/></g><g><path d="M14.167,48c-7.995,0-14.5-6.505-14.5-14.5V26c0-4.963,4.037-9,9-9c0.553,0,1,0.447,1,1s-0.447,1-1,1     c-3.859,0-7,3.141-7,7v7.5c0,6.893,5.607,12.5,12.5,12.5s12.5-5.607,12.5-12.5v-17c0-3.584,2.916-6.5,6.5-6.5h3.5     c2.757,0,5,2.243,5,5c0,0.553-0.447,1-1,1s-1-0.447-1-1c0-1.654-1.346-3-3-3h-3.5c-2.481,0-4.5,2.019-4.5,4.5v17     C28.667,41.495,22.162,48,14.167,48z"/></g></g></g></svg>