<?xml version="1.0" ?><!DOCTYPE svg  PUBLIC '-//W3C//DTD SVG 1.1//EN'  'http://www.w3.org/Graphics/SVG/1.1/DTD/svg11.dtd'><svg enable-background="new 0 0 48 48" height="48px" version="1.1" viewBox="0 0 48 48" width="48px" xml:space="preserve" xmlns="http://www.w3.org/2000/svg" xmlns:xlink="http://www.w3.org/1999/xlink"><g id="Expanded"><g><g><path d="M36,24h-4v-2h4c0.552,0,1-0.448,1-1V9c0-1.654-1.346-3-3-3H12c-1.654,0-3,1.346-3,3v12c0,0.552,0.448,1,1,1h4v2h-4     c-1.654,0-3-1.346-3-3V9c0-2.757,2.243-5,5-5h22c2.757,0,5,2.243,5,5v12C39,22.654,37.654,24,36,24z"/></g><g><path d="M33,6h-6c-0.553,0-1-0.447-1-1V1c0-0.553,0.447-1,1-1h6c0.553,0,1,0.447,1,1v4C34,5.553,33.553,6,33,6z M28,4h4V2h-4V4z"/></g><g><path d="M19,6h-6c-0.553,0-1-0.447-1-1V1c0-0.553,0.447-1,1-1h6c0.553,0,1,0.447,1,1v4C20,5.553,19.553,6,19,6z M14,4h4V2h-4V4z"/></g><g><path d="M10,40H4c-0.553,0-1-0.447-1-1v-3c0-2.206,1.794-4,4-4h3c0.553,0,1,0.447,1,1v6C11,39.553,10.553,40,10,40z M5,38h4v-4H7     c-1.103,0-2,0.897-2,2V38z"/></g><g><path d="M10,48H6c-1.654,0-3-1.346-3-3v-6c0-0.553,0.447-1,1-1h6c0.553,0,1,0.447,1,1v8C11,47.553,10.553,48,10,48z M5,40v5     c0,0.552,0.448,1,1,1h3v-6H5z"/></g><g><path d="M42,40h-6c-0.553,0-1-0.447-1-1v-6c0-0.553,0.447-1,1-1h3c2.206,0,4,1.794,4,4v3C43,39.553,42.553,40,42,40z M37,38h4v-2     c0-1.103-0.897-2-2-2h-2V38z"/></g><g><path d="M40,48h-4c-0.553,0-1-0.447-1-1v-8c0-0.553,0.447-1,1-1h6c0.553,0,1,0.447,1,1v6C43,46.654,41.654,48,40,48z M37,46h3     c0.552,0,1-0.448,1-1v-5h-4V46z"/></g><g><path d="M32,40H14c-0.553,0-1-0.447-1-1v-3c0-2.206,1.794-4,4-4h12c2.206,0,4,1.794,4,4v3C33,39.553,32.553,40,32,40z M15,38h16     v-2c0-1.103-0.897-2-2-2H17c-1.103,0-2,0.897-2,2V38z"/></g><g><path d="M16,29c-1.654,0-3-1.346-3-3v-5c0-1.654,1.346-3,3-3s3,1.346,3,3v5C19,27.654,17.654,29,16,29z M16,20     c-0.552,0-1,0.448-1,1v5c0,0.552,0.448,1,1,1s1-0.448,1-1v-5C17,20.448,16.552,20,16,20z"/></g><g><path d="M30,29c-1.654,0-3-1.346-3-3v-5c0-1.654,1.346-3,3-3s3,1.346,3,3v5C33,27.654,31.654,29,30,29z M30,20     c-0.552,0-1,0.448-1,1v5c0,0.552,0.448,1,1,1s1-0.448,1-1v-5C31,20.448,30.552,20,30,20z"/></g><g><path d="M34,10H12c-0.553,0-1-0.447-1-1s0.447-1,1-1h22c0.553,0,1,0.447,1,1S34.553,10,34,10z"/></g><g><path d="M14,12c-0.553,0-1-0.447-1-1V9c0-0.553,0.447-1,1-1s1,0.447,1,1v2C15,11.553,14.553,12,14,12z"/></g><g><path d="M18,42c-0.553,0-1-0.447-1-1v-4c0-0.553,0.447-1,1-1s1,0.447,1,1v4C19,41.553,18.553,42,18,42z"/></g><g><path d="M28,42c-0.553,0-1-0.447-1-1v-4c0-0.553,0.447-1,1-1s1,0.447,1,1v4C29,41.553,28.553,42,28,42z"/></g><g><rect height="2" width="10" x="18" y="22"/></g><g><path d="M10,34c-0.553,0-1-0.447-1-1V23c0-0.553,0.447-1,1-1s1,0.447,1,1v10C11,33.553,10.553,34,10,34z"/></g><g><path d="M36,34c-0.553,0-1-0.447-1-1V23c0-0.553,0.447-1,1-1s1,0.447,1,1v10C37,33.553,36.553,34,36,34z"/></g><g><path d="M36,48H10c-0.553,0-1-0.447-1-1s0.447-1,1-1h26c0.553,0,1,0.447,1,1S36.553,48,36,48z"/></g><g><path d="M32,48c-0.553,0-1-0.447-1-1v-7H15v7c0,0.553-0.447,1-1,1s-1-0.447-1-1v-8c0-0.553,0.447-1,1-1h18c0.553,0,1,0.447,1,1v8     C33,47.553,32.553,48,32,48z"/></g></g></g></svg>