<?xml version="1.0" ?><!DOCTYPE svg  PUBLIC '-//W3C//DTD SVG 1.1//EN'  'http://www.w3.org/Graphics/SVG/1.1/DTD/svg11.dtd'><svg enable-background="new 0 0 48 48" height="48px" version="1.1" viewBox="0 0 48 48" width="48px" xml:space="preserve" xmlns="http://www.w3.org/2000/svg" xmlns:xlink="http://www.w3.org/1999/xlink"><g id="Expanded"><g><g><path d="M34,24c-0.552,0-1-0.447-1-1V11c0-4.963-4.038-9-9-9s-9,4.037-9,9v12c0,0.553-0.448,1-1,1s-1-0.447-1-1V11     c0-6.065,4.935-11,11-11s11,4.935,11,11v12C35,23.553,34.552,24,34,24z"/></g><g><path d="M41,48H7c-3.86,0-7-3.141-7-7V28c0-5.514,4.486-10,10-10h28c5.514,0,10,4.486,10,10v13C48,44.859,44.86,48,41,48z M10,20     c-4.411,0-8,3.589-8,8v13c0,2.757,2.243,5,5,5h34c2.757,0,5-2.243,5-5V28c0-4.411-3.589-8-8-8H10z"/></g><g><path d="M11,48c-0.552,0-1-0.447-1-1c0-4.963-4.038-9-9-9c-0.552,0-1-0.447-1-1s0.448-1,1-1c6.065,0,11,4.935,11,11     C12,47.553,11.552,48,11,48z"/></g><g><path d="M37,48c-0.552,0-1-0.447-1-1c0-6.065,4.935-11,11-11c0.552,0,1,0.447,1,1s-0.448,1-1,1c-4.962,0-9,4.037-9,9     C38,47.553,37.552,48,37,48z"/></g><g><path d="M43,30H5c-0.552,0-1-0.447-1-1s0.448-1,1-1h38c0.552,0,1,0.447,1,1S43.552,30,43,30z"/></g><g><path d="M9,34c-0.552,0-1-0.447-1-1v-4c0-0.553,0.448-1,1-1s1,0.447,1,1v4C10,33.553,9.552,34,9,34z"/></g></g></g></svg>