<?xml version="1.0" ?><!DOCTYPE svg  PUBLIC '-//W3C//DTD SVG 1.1//EN'  'http://www.w3.org/Graphics/SVG/1.1/DTD/svg11.dtd'><svg enable-background="new 0 0 48 48" height="48px" version="1.1" viewBox="0 0 48 48" width="48px" xml:space="preserve" xmlns="http://www.w3.org/2000/svg" xmlns:xlink="http://www.w3.org/1999/xlink"><g id="Expanded"><g><g><path d="M31,24c-0.552,0-1-0.447-1-1V3c0-0.553,0.448-1,1-1c6.065,0,11,4.935,11,11S37.065,24,31,24z M32,4.056v17.889     c4.494-0.499,8-4.319,8-8.944S36.494,4.555,32,4.056z"/></g><g><path d="M31,4c-0.552,0-1-0.447-1-1V1c0-0.553,0.448-1,1-1s1,0.447,1,1v2C32,3.553,31.552,4,31,4z"/></g><g><path d="M21,28h-4c-0.552,0-1-0.447-1-1s0.448-1,1-1h4c0.552,0,1,0.447,1,1S21.552,28,21,28z"/></g><g><path d="M27,20H9c-0.552,0-1-0.447-1-1s0.448-1,1-1h18c0.552,0,1,0.447,1,1S27.552,20,27,20z"/></g><g><path d="M12.001,48c-0.05,0-0.101-0.004-0.152-0.012c-0.546-0.083-0.921-0.594-0.838-1.14l2-13.089     c0.084-0.545,0.596-0.916,1.14-0.837c0.546,0.083,0.921,0.594,0.838,1.14l-2,13.089C12.913,47.646,12.487,48,12.001,48z"/></g><g><path d="M25,48c-2.206,0-4-1.794-4-4s1.794-4,4-4s4,1.794,4,4S27.206,48,25,48z M25,42c-1.103,0-2,0.897-2,2s0.897,2,2,2     s2-0.897,2-2S26.103,42,25,42z"/></g><g><path d="M24.298,42.083c-0.533,0-0.976-0.421-0.999-0.958l-0.299-7.172c-0.023-0.552,0.406-1.019,0.958-1.041     c0.561-0.037,1.017,0.406,1.041,0.957l0.299,7.172c0.023,0.552-0.406,1.019-0.958,1.041     C24.326,42.083,24.312,42.083,24.298,42.083z"/></g><g><rect height="2" width="10.988" x="13.231" y="38"/></g><g><path d="M19,36c-7.168,0-13-5.832-13-13c0-0.553,0.448-1,1-1h24c0.552,0,1,0.447,1,1C32,30.168,26.168,36,19,36z M8.045,24     C8.552,29.599,13.271,34,19,34s10.448-4.401,10.955-10H8.045z"/></g></g></g></svg>