<?xml version="1.0" encoding="UTF-8" standalone="no"?>
<svg width="774px" height="472px" viewBox="0 0 774 472" version="1.1" xmlns="http://www.w3.org/2000/svg" xmlns:xlink="http://www.w3.org/1999/xlink" xmlns:sketch="http://www.bohemiancoding.com/sketch/ns">
    <title>Slice 1</title>
    <description>Created with Sketch (http://www.bohemiancoding.com/sketch)</description>
    <defs>
        <path d="M580,61 L395,170" id="path-1"></path>
        <path d="M305,203 L264,203" id="path-2"></path>
        <path d="M585,201 L407,201" id="path-3"></path>
        <path d="M589,314 L402,243" id="path-4"></path>
        <path d="M591,438 L382,265" id="path-5"></path>
    </defs>
    <g id="Page-1" stroke="none" stroke-width="1" fill="none" fill-rule="evenodd" sketch:type="MSPage">
        <path d="M403,183 L584,75" id="Line" stroke="#9B9B9B" stroke-width="4" stroke-linecap="square" fill="#9B9B9B" sketch:type="MSShapeGroup"></path>
        <path id="Line-decoration-1" d="M583.336718,75.3957707 C579.552636,76.4309633 576.309137,77.3182712 572.525055,78.3534637 C573.601097,80.1568309 574.523419,81.7025742 575.599461,83.5059413 C578.307501,80.6673816 580.628678,78.2343304 583.336718,75.3957707 C583.336718,75.3957707 583.336718,75.3957707 583.336718,75.3957707 Z" stroke="#9B9B9B" stroke-width="4" stroke-linecap="square" fill="#9B9B9B"></path>
        <path d="M270,223 L304,223" id="Line" stroke="#9B9B9B" stroke-width="4" stroke-linecap="square" fill="#9B9B9B" sketch:type="MSShapeGroup"></path>
        <path id="Line-decoration-1" d="M304,223 C300.22,221.95 296.98,221.05 293.2,220 C293.2,222.1 293.2,223.9 293.2,226 C296.98,224.95 300.22,224.05 304,223 C304,223 304,223 304,223 Z" stroke="#9B9B9B" stroke-width="4" stroke-linecap="square" fill="#9B9B9B"></path>
        <text id="" sketch:type="MSTextLayer" font-family="FontAwesome" font-size="72" font-weight="normal" fill="#000000">
            <tspan x="695" y="206"></tspan>
        </text>
        <text id="" sketch:type="MSTextLayer" font-family="FontAwesome" font-size="48" font-weight="normal" fill="#000000">
            <tspan x="6" y="102"></tspan>
        </text>
        <text id="" sketch:type="MSTextLayer" font-family="FontAwesome" font-size="48" font-weight="normal" fill="#000000">
            <tspan x="1" y="345"></tspan>
        </text>
        <text id="" sketch:type="MSTextLayer" font-family="FontAwesome" font-size="118" font-weight="normal" fill="#000000">
            <tspan x="134" y="246"></tspan>
        </text>
        <text id="" fill="#FFFFFF" sketch:type="MSTextLayer" font-family="FontAwesome" font-size="72" font-weight="normal">
            <tspan x="164" y="228" fill="#000000"></tspan>
        </text>
        <path d="M165,178 L57,108" id="Line" stroke="#4A4A4A" stroke-width="4" stroke-linecap="square" fill="#4A4A4A" sketch:type="MSShapeGroup"></path>
        <path id="Line-decoration-1" d="M57.5884161,108.381381 C60.1893243,111.318416 62.4186742,113.835875 65.0195823,116.772911 C66.1617626,115.01069 67.1407743,113.500214 68.2829546,111.737993 C64.5398661,110.563179 61.3315046,109.556195 57.5884161,108.381381 C57.5884161,108.381381 57.5884161,108.381381 57.5884161,108.381381 Z" stroke="#4A4A4A" stroke-width="4" stroke-linecap="square" fill="#4A4A4A"></path>
        <path id="Line-decoration-2" d="M164.328678,177.564884 C160.585589,176.390069 157.377228,175.383086 153.634139,174.208272 C154.776319,172.44605 155.755331,170.935575 156.897511,169.173354 C159.49842,172.110389 161.727769,174.627848 164.328678,177.564884 C164.328678,177.564884 164.328678,177.564884 164.328678,177.564884 Z" stroke="#4A4A4A" stroke-width="4" stroke-linecap="square" fill="#4A4A4A"></path>
        <path d="M684,41 L641,41" id="Line" stroke="#4A4A4A" stroke-width="4" stroke-linecap="square" fill="#4A4A4A" sketch:type="MSShapeGroup"></path>
        <path id="Line-decoration-1" d="M641,41 C644.78,42.05 648.02,42.95 651.8,44 C651.8,41.9 651.8,40.1 651.8,38 C648.02,39.05 644.78,39.95 641,41 C641,41 641,41 641,41 Z" stroke="#4A4A4A" stroke-width="4" stroke-linecap="square" fill="#4A4A4A"></path>
        <path id="Line-decoration-2" d="M683.2,41 C679.42,42.05 676.18,42.95 672.4,44 C672.4,41.9 672.4,40.1 672.4,38 C676.18,39.05 679.42,39.95 683.2,41 C683.2,41 683.2,41 683.2,41 Z" stroke="#4A4A4A" stroke-width="4" stroke-linecap="square" fill="#4A4A4A"></path>
        <path d="M684,179 L641,179" id="Line" stroke="#4A4A4A" stroke-width="4" stroke-linecap="square" fill="#4A4A4A" sketch:type="MSShapeGroup"></path>
        <path id="Line-decoration-1" d="M641,179 C644.78,180.05 648.02,180.95 651.8,182 C651.8,179.9 651.8,178.1 651.8,176 C648.02,177.05 644.78,177.95 641,179 C641,179 641,179 641,179 Z" stroke="#4A4A4A" stroke-width="4" stroke-linecap="square" fill="#4A4A4A"></path>
        <path id="Line-decoration-2" d="M683.2,179 C679.42,180.05 676.18,180.95 672.4,182 C672.4,179.9 672.4,178.1 672.4,176 C676.18,177.05 679.42,177.95 683.2,179 C683.2,179 683.2,179 683.2,179 Z" stroke="#4A4A4A" stroke-width="4" stroke-linecap="square" fill="#4A4A4A"></path>
        <path d="M684,309 L641,309" id="Line" stroke="#4A4A4A" stroke-width="4" stroke-linecap="square" fill="#4A4A4A" sketch:type="MSShapeGroup"></path>
        <path id="Line-decoration-1" d="M641,309 C644.78,310.05 648.02,310.95 651.8,312 C651.8,309.9 651.8,308.1 651.8,306 C648.02,307.05 644.78,307.95 641,309 C641,309 641,309 641,309 Z" stroke="#4A4A4A" stroke-width="4" stroke-linecap="square" fill="#4A4A4A"></path>
        <path id="Line-decoration-2" d="M683.2,309 C679.42,310.05 676.18,310.95 672.4,312 C672.4,309.9 672.4,308.1 672.4,306 C676.18,307.05 679.42,307.95 683.2,309 C683.2,309 683.2,309 683.2,309 Z" stroke="#4A4A4A" stroke-width="4" stroke-linecap="square" fill="#4A4A4A"></path>
        <path d="M690,435 L647,435" id="Line" stroke="#4A4A4A" stroke-width="4" stroke-linecap="square" fill="#4A4A4A" sketch:type="MSShapeGroup"></path>
        <path id="Line-decoration-1" d="M647,435 C650.78,436.05 654.02,436.95 657.8,438 C657.8,435.9 657.8,434.1 657.8,432 C654.02,433.05 650.78,433.95 647,435 C647,435 647,435 647,435 Z" stroke="#4A4A4A" stroke-width="4" stroke-linecap="square" fill="#4A4A4A"></path>
        <path id="Line-decoration-2" d="M689.2,435 C685.42,436.05 682.18,436.95 678.4,438 C678.4,435.9 678.4,434.1 678.4,432 C682.18,433.05 685.42,433.95 689.2,435 C689.2,435 689.2,435 689.2,435 Z" stroke="#4A4A4A" stroke-width="4" stroke-linecap="square" fill="#4A4A4A"></path>
        <path d="M161,235 L59,293" id="Line" stroke="#4A4A4A" stroke-width="4" stroke-linecap="square" fill="#4A4A4A" sketch:type="MSShapeGroup"></path>
        <path id="Line-decoration-1" d="M59.2930551,292.833361 C63.097989,291.877653 66.3593609,291.058475 70.1642955,290.102767 C69.1262606,288.277258 68.2365164,286.712536 67.1984816,284.887027 C64.4315827,287.668243 62.0599546,290.052144 59.2930551,292.833361 C59.2930551,292.833361 59.2930551,292.833361 59.2930551,292.833361 Z" stroke="#4A4A4A" stroke-width="4" stroke-linecap="square" fill="#4A4A4A"></path>
        <path id="Line-decoration-2" d="M160.304568,235.395442 C157.537668,238.176659 155.166041,240.560559 152.399141,243.341776 C151.361107,241.516267 150.471362,239.951545 149.433328,238.126036 C153.238262,237.170328 156.499634,236.35115 160.304568,235.395442 C160.304568,235.395442 160.304568,235.395442 160.304568,235.395442 Z" stroke="#4A4A4A" stroke-width="4" stroke-linecap="square" fill="#4A4A4A"></path>
        <text id="" sketch:type="MSTextLayer" font-family="FontAwesome" font-size="72" font-weight="normal" fill="#000000">
            <tspan x="695" y="59"></tspan>
        </text>
        <text id="" sketch:type="MSTextLayer" font-family="FontAwesome" font-size="72" font-weight="normal" fill="#000000">
            <tspan x="711" y="331"></tspan>
        </text>
        <text id="" sketch:type="MSTextLayer" font-family="FontAwesome" font-size="72" font-weight="normal" fill="#000000">
            <tspan x="719" y="456"></tspan>
        </text>
        <g id="Oval-1-+-AJAX" sketch:type="MSLayerGroup" transform="translate(314.000000, 168.000000)">
            <circle id="Oval-1" fill="#000000" sketch:type="MSShapeGroup" cx="44" cy="44" r="44"></circle>
            <text id="AJAX" fill="#FFFFFF" sketch:type="MSTextLayer" font-family="Lucida Grande" font-size="26.1818182" font-weight="normal">
                <tspan x="13" y="53" fill="#000000">AJAX</tspan>
            </text>
        </g>
        <g id="Line">
            <use stroke="none" fill="#000000" fill-rule="evenodd" sketch:type="MSShapeGroup" xlink:href="#path-1"></use>
            <use stroke="none" fill="none" xlink:href="#path-1"></use>
            <use stroke="#000000" stroke-width="4" stroke-linecap="square" stroke-dasharray="10,10,10,10" fill="none" xlink:href="#path-1"></use>
        </g>
        <path id="Line-decoration-1" d="M395.622991,169.632941 C399.412755,168.618751 402.661125,167.749445 406.45089,166.735255 C405.384866,164.925948 404.471131,163.375113 403.405107,161.565806 C400.681366,164.389303 398.346731,166.809444 395.622991,169.632941 C395.622991,169.632941 395.622991,169.632941 395.622991,169.632941 Z" fill="#000000"></path>
        <g id="Line">
            <use stroke="none" fill="#000000" fill-rule="evenodd" sketch:type="MSShapeGroup" xlink:href="#path-2"></use>
            <use stroke="none" fill="none" xlink:href="#path-2"></use>
            <use stroke="#000000" stroke-width="4" stroke-linecap="square" stroke-dasharray="10,10,10,10" fill="none" xlink:href="#path-2"></use>
        </g>
        <path id="Line-decoration-1" d="M264,203 C267.78,204.05 271.02,204.95 274.8,206 C274.8,203.9 274.8,202.1 274.8,200 C271.02,201.05 267.78,201.95 264,203 C264,203 264,203 264,203 Z" fill="#000000"></path>
        <text id="" sketch:type="MSTextLayer" font-family="FontAwesome" font-size="32" font-weight="normal" fill="#000000">
            <tspan x="598" y="29"></tspan>
        </text>
        <text id="" sketch:type="MSTextLayer" font-family="FontAwesome" font-size="32" font-weight="normal" fill="#000000">
            <tspan x="595" y="74"></tspan>
        </text>
        <path d="M406,213 L586,213" id="Line" stroke="#9B9B9B" stroke-width="4" stroke-linecap="square" fill="#9B9B9B" sketch:type="MSShapeGroup"></path>
        <path id="Line-decoration-1" d="M586,213 C582.22,211.95 578.98,211.05 575.2,210 C575.2,212.1 575.2,213.9 575.2,216 C578.98,214.95 582.22,214.05 586,213 C586,213 586,213 586,213 Z" stroke="#9B9B9B" stroke-width="4" stroke-linecap="square" fill="#9B9B9B"></path>
        <g id="Line">
            <use stroke="none" fill="#000000" fill-rule="evenodd" sketch:type="MSShapeGroup" xlink:href="#path-3"></use>
            <use stroke="none" fill="none" xlink:href="#path-3"></use>
            <use stroke="#000000" stroke-width="4" stroke-linecap="square" stroke-dasharray="10,10,10,10" fill="none" xlink:href="#path-3"></use>
        </g>
        <path id="Line-decoration-1" d="M407,201 C410.78,202.05 414.02,202.95 417.8,204 C417.8,201.9 417.8,200.1 417.8,198 C414.02,199.05 410.78,199.95 407,201 C407,201 407,201 407,201 Z" fill="#000000"></path>
        <text id="" sketch:type="MSTextLayer" font-family="FontAwesome" font-size="32" font-weight="normal" fill="#000000">
            <tspan x="600" y="167"></tspan>
        </text>
        <text id="" sketch:type="MSTextLayer" font-family="FontAwesome" font-size="32" font-weight="normal" fill="#000000">
            <tspan x="597" y="212"></tspan>
        </text>
        <path d="M396,252 L587,329" id="Line" stroke="#9B9B9B" stroke-width="4" stroke-linecap="square" fill="#9B9B9B" sketch:type="MSShapeGroup"></path>
        <path id="Line-decoration-1" d="M586.131064,328.649696 C583.017829,326.262508 580.349342,324.216348 577.236106,321.82916 C576.450914,323.776844 575.777892,325.446288 574.9927,327.393972 C578.891128,327.833475 582.232637,328.210193 586.131064,328.649696 C586.131064,328.649696 586.131064,328.649696 586.131064,328.649696 Z" stroke="#9B9B9B" stroke-width="4" stroke-linecap="square" fill="#9B9B9B"></path>
        <g id="Line">
            <use stroke="none" fill="#000000" fill-rule="evenodd" sketch:type="MSShapeGroup" xlink:href="#path-4"></use>
            <use stroke="none" fill="none" xlink:href="#path-4"></use>
            <use stroke="#000000" stroke-width="4" stroke-linecap="square" stroke-dasharray="10,10,10,10" fill="none" xlink:href="#path-4"></use>
        </g>
        <path id="Line-decoration-1" d="M402.023366,243.008872 C405.184521,245.332231 407.894083,247.323683 411.055238,249.647042 C411.800645,247.683788 412.439565,246.000998 413.184971,244.037743 C409.27841,243.677638 405.929928,243.368977 402.023366,243.008872 C402.023366,243.008872 402.023366,243.008872 402.023366,243.008872 Z" fill="#000000"></path>
        <text id="" sketch:type="MSTextLayer" font-family="FontAwesome" font-size="32" font-weight="normal" fill="#000000">
            <tspan x="602" y="298"></tspan>
        </text>
        <text id="" sketch:type="MSTextLayer" font-family="FontAwesome" font-size="32" font-weight="normal" fill="#000000">
            <tspan x="599" y="343"></tspan>
        </text>
        <path d="M368,269 L589,456" id="Line" stroke="#9B9B9B" stroke-width="4" stroke-linecap="square" fill="#9B9B9B" sketch:type="MSShapeGroup"></path>
        <path id="Line-decoration-1" d="M588.618633,455.677305 C586.411272,452.434088 584.519249,449.654187 582.311888,446.41097 C580.955409,448.014081 579.792713,449.388176 578.436235,450.991288 C582.000074,452.631394 585.054794,454.037199 588.618633,455.677305 C588.618633,455.677305 588.618633,455.677305 588.618633,455.677305 Z" stroke="#9B9B9B" stroke-width="4" stroke-linecap="square" fill="#9B9B9B"></path>
        <g id="Line">
            <use stroke="none" fill="#000000" fill-rule="evenodd" sketch:type="MSShapeGroup" xlink:href="#path-5"></use>
            <use stroke="none" fill="none" xlink:href="#path-5"></use>
            <use stroke="#000000" stroke-width="4" stroke-linecap="square" stroke-dasharray="10,10,10,10" fill="none" xlink:href="#path-5"></use>
        </g>
        <path id="Line-decoration-1" d="M382.240047,265.198699 C384.482376,268.417839 386.404373,271.177102 388.646703,274.396241 C389.985753,272.778544 391.133511,271.391947 392.472561,269.77425 C388.891181,268.172807 385.821427,266.800142 382.240047,265.198699 C382.240047,265.198699 382.240047,265.198699 382.240047,265.198699 Z" fill="#000000"></path>
        <text id="" sketch:type="MSTextLayer" font-family="FontAwesome" font-size="32" font-weight="normal" fill="#000000">
            <tspan x="603" y="422"></tspan>
        </text>
        <text id="" sketch:type="MSTextLayer" font-family="FontAwesome" font-size="32" font-weight="normal" fill="#000000">
            <tspan x="600" y="467"></tspan>
        </text>
    </g>
</svg>